<?xml version="1.0" encoding="utf-8"?>
<!-- Generator: Adobe Illustrator 25.2.3, SVG Export Plug-In . SVG Version: 6.00 Build 0)  -->
<svg version="1.1" id="Capa_1" xmlns="http://www.w3.org/2000/svg" xmlns:xlink="http://www.w3.org/1999/xlink" x="0px" y="0px"
	 viewBox="0 0 473.1 144.7" style="enable-background:new 0 0 473.1 144.7;" xml:space="preserve">
<style type="text/css">
	.st0{fill:#FFFFFF;}
</style>
<g>
	<g>
		<path class="st0" d="M292.4,37.7c-0.7-1.6-1.4-2.4-3.1-2.4H282c-1.7,0-2.5,0.8-3.1,2.4l-16.8,46.1c-0.4,0.9-0.4,2.2,1.3,2.2h7.9
			c1.7,0,2.3-0.5,2.9-2.3l2.1-6.1h18.5l2.1,6.1c0.6,1.8,1.2,2.3,2.9,2.3h7.9c1.7,0,1.7-1.2,1.3-2.2L292.4,37.7z M280,66.8l5.7-17
			l5.7,17H280z"/>
		<path class="st0" d="M322.4,29.7h3.5c1.4,0,1.7-0.6,1.9-1.4c0.5-1.5,1.7-1.9,2.7-1.8c0.9,0.2,5.4,1.8,5.4,1.8
			c1.7,0.6,4.2,1.4,6.1,1.4c4.9,0,8.2-3.9,8.2-8.5v-0.1c0-0.5,0-1.5-0.9-1.5h-3.5c-1.4,0-1.7,0.6-1.9,1.4c-0.5,1.5-1.7,1.9-2.7,1.8
			c-0.9-0.2-5.4-1.8-5.4-1.8c-1.7-0.6-4.2-1.4-6.1-1.4c-4.9,0-8.2,3.9-8.2,8.5v0.1C321.5,28.7,321.5,29.7,322.4,29.7z"/>
		<path class="st0" d="M354.1,35.3h-7.3c-1.4,0-2.2,0.5-2.2,2.2v26.7l-16-26.3c-1-1.5-1.5-2.6-3.4-2.6h-7.1c-1.7,0-2.2,0.8-2.2,2.2
			v46.2c0,1.8,0.8,2.2,2.2,2.2h7.5c1.4,0,2.2-0.5,2.2-2.2V56.9l16,26.4c1,1.5,1.5,2.6,3.4,2.6h6.9c1.7,0,2.2-0.8,2.2-2.2V37.5
			C356.3,35.8,355.4,35.3,354.1,35.3z"/>
		<path class="st0" d="M386.3,34.1c-9,0-20.2,5.2-20.2,17.4v18.2c0,12.2,11.2,17.4,20.2,17.4c9,0,20.3-5.2,20.3-17.4V51.5
			C406.6,39.4,395.3,34.1,386.3,34.1z M394.7,68.6c0,4.9-3.5,7.8-8.5,7.8c-4.9,0-8.4-2.8-8.4-7.8v-16c0-4.9,3.5-7.8,8.4-7.8
			c5,0,8.5,2.8,8.5,7.8V68.6z"/>
		<path class="st0" d="M440.5,56.5c-3-1.2-14.2-2.9-14.2-7.6c0-3.5,4.2-4.5,6.7-4.5c2.3,0,5,0.7,6.4,2.1c0.9,0.9,1.3,1.5,1.6,2.3
			c0.4,1,0.6,2.1,2.1,2.1h7.4c1.7,0,2.2-0.3,2.2-2.2c0-10.2-10.5-14.6-20.1-14.6c-9.5,0.4-18.4,5.3-18.4,15.3
			c0,9.8,7,12.9,14.7,15.3c6.4,2.1,13.2,2.2,13.2,6.5s-3.3,5.2-7.4,5.2c-2.8,0-5.9-0.7-7.4-2.5c-1-1.2-1.4-2.2-1.4-3.2
			c-0.2-1.9-1-2.2-2.7-2.2h-7.3c-1.7,0-2.2,0.4-2.2,2.2c0,10.8,10.9,16.3,20.3,16.3c11.7,0,20.1-5.2,20.1-16.2
			C454,60.5,446,58.2,440.5,56.5z"/>
	</g>
	<g>
		<path class="st0" d="M284.8,116.3c-0.6,1.6-1.5,3-2.6,4.1c-2.3,2.4-5.4,3.6-9.2,3.6h-11.9v-1.5c0-0.4,0.2-0.6,0.6-0.7l2-0.4v-20.9
			c-1.2-0.2-1.8-0.4-2-0.4c-0.4-0.1-0.6-0.3-0.6-0.7v-1.5H273c3.8,0,6.9,1.2,9.2,3.6c2.3,2.4,3.5,5.6,3.5,9.5
			C285.7,112.9,285.4,114.7,284.8,116.3z M281.4,106.6c-0.4-1.2-1-2.3-1.8-3.2c-1.6-1.8-3.8-2.7-6.7-2.7h-5.8v20.5h5.8
			c2.8,0,5-0.9,6.7-2.7s2.4-4.3,2.4-7.5C282.1,109.4,281.9,107.9,281.4,106.6z"/>
		<path class="st0" d="M305.6,97.9v6.3h-1.7c-0.4,0-0.7-0.2-0.8-0.6c0-0.1-0.1-1.1-0.2-2.8h-9.6v8.7h9.5v2.8h-9.5v9h9.6
			c0.1-1.6,0.2-2.5,0.2-2.6c0.1-0.4,0.4-0.6,0.8-0.6h1.7v6.1h-18.5v-1.5c0-0.4,0.2-0.6,0.5-0.7l2.1-0.4v-20.9
			c-1.2-0.2-1.8-0.4-2.1-0.4c-0.4-0.1-0.5-0.3-0.5-0.7v-1.5L305.6,97.9L305.6,97.9z"/>
		<path class="st0" d="M320.5,110.2c2.6,1.2,3.9,3.2,3.9,5.9c0,2.4-0.7,4.4-2.2,5.9c-1.6,1.6-3.7,2.4-6.4,2.4
			c-1.1,0-2.3-0.1-3.5-0.3c-1.2-0.2-2.2-0.5-2.9-0.7l-1-0.4v-6.6h1.8c0.4,0,0.7,0.2,0.7,0.6c0,0.2,0.1,0.8,0.2,1.8
			c0.1,1,0.1,1.6,0.1,1.6c1.8,0.7,3.2,1,4.4,1s2-0.2,2.7-0.4c0.7-0.2,1.2-0.5,1.7-1c0.9-0.9,1.4-2,1.4-3.5c0-1.4-0.7-2.5-1.9-3.2
			c-0.6-0.4-1.2-0.7-1.9-0.9c-2.3-0.7-3.8-1.2-4.5-1.5c-0.7-0.3-1.4-0.8-2-1.3c-1.3-1.2-1.9-2.8-1.9-4.9c0-2,0.7-3.6,2.1-5
			c1.5-1.5,3.4-2.2,5.8-2.2c2.4,0,4.8,0.4,7.2,1.5v6h-1.7c-0.4,0-0.7-0.2-0.8-0.6c0-0.1-0.1-1.1-0.2-3.3c-1.6-0.4-3-0.7-4.2-0.7
			c-1.5,0-2.7,0.4-3.6,1.2c-0.8,0.7-1.2,1.8-1.2,2.9c0,1.3,0.7,2.3,1.9,3c0.6,0.4,1.3,0.7,2,0.9
			C318.2,109.2,319.7,109.8,320.5,110.2L320.5,110.2L320.5,110.2z"/>
		<path class="st0" d="M350.1,116.3c-0.6,1.6-1.5,3-2.6,4.1c-2.3,2.4-5.4,3.6-9.2,3.6h-11.9v-1.5c0-0.4,0.2-0.6,0.6-0.7l2-0.4v-20.9
			c-1.2-0.2-1.8-0.4-2-0.4c-0.4-0.1-0.6-0.3-0.6-0.7v-1.5h11.9c3.8,0,6.9,1.2,9.2,3.6c2.3,2.4,3.5,5.6,3.5,9.5
			C351.1,112.9,350.7,114.7,350.1,116.3z M346.8,106.6c-0.4-1.2-1-2.3-1.8-3.2c-1.6-1.8-3.8-2.7-6.7-2.7h-5.8v20.5h5.8
			c2.8,0,5-0.9,6.7-2.7s2.4-4.3,2.4-7.5C347.5,109.4,347.2,107.9,346.8,106.6z"/>
		<path class="st0" d="M371.7,97.9v6.3H370c-0.4,0-0.7-0.2-0.8-0.6c0-0.1-0.1-1.1-0.2-2.8h-9.6v8.7h9.5v2.8h-9.5v9h9.6
			c0.1-1.6,0.2-2.5,0.2-2.6c0.1-0.4,0.4-0.6,0.8-0.6h1.7v6.1h-18.5v-1.5c0-0.4,0.2-0.6,0.5-0.7l2.1-0.4v-20.9
			c-1.2-0.2-1.8-0.4-2.1-0.4c-0.4-0.1-0.5-0.3-0.5-0.7v-1.5L371.7,97.9L371.7,97.9z"/>
		<path class="st0" d="M396.9,122.6v1.5h-13.8V123v-0.4c0-0.4,0.1-0.6,0.5-0.7l5-0.4v-17.9c0-0.5,0-1.1,0-1.7l-4.6,4
			c-0.2,0.2-0.4,0.3-0.7,0.3c-0.4,0-0.7-0.1-0.9-0.4l-1-1.4l7.7-6.7h2.6v23.8c2.8,0.2,4.4,0.3,4.6,0.4
			C396.7,122,396.9,122.2,396.9,122.6z"/>
		<path class="st0" d="M403,112.8c-0.9-0.3-1.6-0.8-2.3-1.5c-0.7-0.7-1.2-1.4-1.6-2.3c-0.4-1-0.6-2-0.6-3.2c0-1.2,0.2-2.2,0.6-3.2
			c0.4-1,1-1.9,1.8-2.6c0.8-0.7,1.6-1.3,2.7-1.8s2.2-0.7,3.4-0.7s2.4,0.2,3.4,0.6s1.9,1,2.6,1.8s1.3,1.7,1.7,2.7
			c0.4,1,0.6,2.2,0.6,3.5c0,0.7-0.1,1.5-0.2,2.2c-0.1,0.7-0.3,1.3-0.6,2c-0.3,0.7-0.6,1.2-0.9,1.9c-0.4,0.7-0.8,1.3-1.3,2l-6.3,9.2
			c-0.1,0.2-0.4,0.4-0.7,0.6s-0.7,0.2-1,0.2h-2.9l7.8-10.5c0.3-0.4,0.6-0.7,0.8-1c0.2-0.3,0.4-0.6,0.7-0.9c-0.7,0.5-1.4,0.9-2.2,1.2
			s-1.7,0.4-2.7,0.4C404.8,113.3,403.9,113.1,403,112.8z M412.2,105.7c0-0.8-0.1-1.6-0.4-2.2s-0.7-1.2-1.1-1.7
			c-0.4-0.4-1-0.8-1.6-1.1c-0.7-0.3-1.3-0.4-2.1-0.4c-0.8,0-1.5,0.2-2.2,0.4c-0.7,0.3-1.2,0.6-1.7,1.1s-0.8,1-1.1,1.7
			c-0.2,0.7-0.4,1.4-0.4,2.1c0,0.8,0.1,1.5,0.4,2.2c0.2,0.7,0.6,1.2,1,1.7s1,0.8,1.6,1c0.7,0.2,1.3,0.4,2.1,0.4
			c0.9,0,1.7-0.2,2.3-0.4c0.7-0.3,1.2-0.7,1.7-1.2c0.4-0.5,0.8-1,1-1.6S412.2,106.3,412.2,105.7L412.2,105.7L412.2,105.7z"/>
		<path class="st0" d="M426.4,97.6c1.1,0,2.1,0.2,3,0.4c0.9,0.3,1.7,0.8,2.4,1.4s1.2,1.3,1.6,2.1s0.6,1.7,0.6,2.7
			c0,0.8-0.1,1.6-0.3,2.2c-0.2,0.7-0.5,1.2-0.9,1.7c-0.4,0.5-0.9,0.9-1.4,1.2c-0.6,0.4-1.2,0.6-1.9,0.8c1.7,0.4,2.9,1.2,3.8,2.3
			c0.9,1.1,1.3,2.4,1.3,4c0,1.2-0.2,2.3-0.7,3.3s-1,1.8-1.8,2.5c-0.8,0.7-1.7,1.2-2.7,1.6c-1,0.4-2.2,0.5-3.3,0.5
			c-1.4,0-2.5-0.2-3.5-0.5c-1-0.4-1.8-0.9-2.5-1.5c-0.7-0.6-1.2-1.3-1.7-2.2c-0.4-0.8-0.8-1.8-1.1-2.8l1.4-0.6
			c0.2-0.1,0.5-0.2,0.8-0.2c0.2,0,0.4,0,0.6,0.2c0.2,0.1,0.3,0.3,0.4,0.5c0,0.1,0.1,0.1,0.1,0.2c0,0.1,0.1,0.1,0.1,0.2
			c0.1,0.4,0.4,0.8,0.6,1.2s0.5,0.9,1,1.2c0.4,0.4,0.9,0.7,1.6,1s1.3,0.4,2.2,0.4s1.7-0.2,2.4-0.4c0.7-0.3,1.3-0.7,1.7-1.2
			c0.4-0.5,0.8-1,1-1.6c0.2-0.6,0.4-1.1,0.4-1.7c0-0.7-0.1-1.3-0.3-1.9s-0.5-1.1-1-1.5c-0.5-0.4-1.2-0.7-2-1
			c-0.9-0.2-1.9-0.4-3.3-0.4v-2.4c1.1,0,2-0.2,2.8-0.4c0.8-0.2,1.4-0.5,1.9-1s0.9-0.8,1.1-1.4c0.2-0.6,0.3-1.2,0.3-1.9
			c0-0.7-0.1-1.4-0.3-2c-0.2-0.6-0.6-1-1-1.4c-0.4-0.4-0.9-0.6-1.4-0.8c-0.6-0.2-1.2-0.3-1.8-0.3s-1.2,0.1-1.8,0.3
			c-0.6,0.2-1,0.4-1.5,0.8c-0.4,0.4-0.8,0.8-1.1,1.2c-0.3,0.5-0.5,1-0.7,1.6c-0.1,0.4-0.2,0.6-0.4,0.8c-0.2,0.2-0.5,0.2-0.8,0.2
			h-0.2h-0.2l-1.7-0.3c0.1-1.2,0.5-2.3,1-3.2s1.1-1.7,1.8-2.3c0.7-0.6,1.6-1.1,2.5-1.4c0.9-0.3,2-0.5,3.1-0.5L426.4,97.6L426.4,97.6
			z"/>
		<path class="st0" d="M451.5,122.6v1.5h-13.8V123v-0.4c0-0.4,0.1-0.6,0.5-0.7l5-0.4v-17.9c0-0.5,0-1.1,0-1.7l-4.6,4
			c-0.2,0.2-0.4,0.3-0.7,0.3c-0.4,0-0.7-0.1-0.9-0.4l-1-1.4l7.7-6.7h2.6v23.8c2.8,0.2,4.4,0.3,4.6,0.4
			C451.3,122,451.5,122.2,451.5,122.6z"/>
	</g>
</g>
<g>
	<path class="st0" d="M67.2,6.2C40.7,6.2,19,26.9,19,52.3C19,74,37.1,91.6,59.4,91.6c12.5,0,17-2.5,17-2.5L73,93.9l-2.7,3.7
		l-27.3,38.3H68c3,0,4.5-0.8,6.2-3.7l0,0l0,0l25.6-40c4.8-7.3,10.1-15.9,13.2-24.8c2.2-6.7,3.1-11.9,3.1-18
		C116,22.7,90.7,6.2,67.2,6.2z M66.6,72.2c-12.8,0-23.3-10.1-23.3-22.6c0-12.5,10.4-22.8,23.3-22.8c12.8,0,23.1,10.2,23.1,22.8
		C89.7,62.3,79.6,72.2,66.6,72.2z"/>
	<path class="st0" d="M174.1,5.8c-20.4,0-50.7,11.2-50.7,42.2v48.6c0,31,30.3,42.2,50.7,42.2c20.5,0,51.1-11.2,51.1-42.2V48
		C225.2,17.1,194.6,5.8,174.1,5.8z M201.5,93.8c0,15-11,25.2-27.4,25.2c-16.3,0-27.2-10.1-27.2-25.2V50.9c0-15,10.9-25.2,27.2-25.2
		c16.4,0,27.4,10.1,27.4,25.2V93.8z"/>
</g>
</svg>
