<?xml version="1.0" encoding="utf-8"?>
<!-- Generator: Adobe Illustrator 25.2.3, SVG Export Plug-In . SVG Version: 6.00 Build 0)  -->
<svg version="1.1" id="Layer_1" xmlns="http://www.w3.org/2000/svg" xmlns:xlink="http://www.w3.org/1999/xlink" x="0px" y="0px"
	 viewBox="0 0 195.3 322.5" style="enable-background:new 0 0 195.3 322.5;" xml:space="preserve">
<style type="text/css">
	.st0{fill:none;}
	.st1{fill:none;stroke:#FFFFFF;}
	.st2{fill:#FFFFFF;}
	.st3{fill-rule:evenodd;clip-rule:evenodd;fill:#FFFFFF;}
	.st4{enable-background:new    ;}
</style>
<g id="Rectángulo_17_1_">
	<path class="st0" d="M22.6,7.6h150c9.9,0,18,8.1,18,18v271.2c0,9.9-8.1,18-18,18h-150c-9.9,0-18-8.1-18-18V25.6
		C4.6,15.7,12.7,7.6,22.6,7.6z"/>
	<path class="st1" d="M22.6,8.1h150c9.7,0,17.5,7.8,17.5,17.5v271.2c0,9.7-7.8,17.5-17.5,17.5h-150c-9.7,0-17.5-7.8-17.5-17.5V25.6
		C5.1,16,13,8.1,22.6,8.1z"/>
</g>
<g>
	<polygon class="st2" points="58.9,283 62,283 60.4,279.3 	"/>
	<path class="st2" d="M120.6,280.1c0-0.8-0.6-1.2-1.7-1.2h-2.2v2.3h2.2C120,281.3,120.6,280.9,120.6,280.1z"/>
	<path class="st2" d="M73,279h-2v5.8h2c1.9,0,3.1-1.1,3.1-2.9S74.9,279,73,279z"/>
	<path class="st2" d="M119.3,282.5h-2.5v2.4h2.5c1.2,0,1.8-0.4,1.8-1.2S120.4,282.5,119.3,282.5z"/>
	<path class="st2" d="M127.7,279h-1.8v3.4h1.8c1.4,0,2.1-0.6,2.1-1.7S129.1,279,127.7,279z"/>
	<path class="st2" d="M154.3,279c-1.1,0-1.9,0.9-1.9,3c0,2,0.8,3,1.9,3c1.1,0,1.9-0.9,1.9-3C156.2,279.9,155.4,279,154.3,279z"/>
	<polygon class="st2" points="35.6,283 38.8,283 37.2,279.3 	"/>
	<path class="st2" d="M171.1,274.1h-147c-2.2,0-4,1.8-4,4v8c0,2.2,1.8,4,4,4h147c2.2,0,4-1.8,4-4v-8
		C175.1,275.9,173.3,274.1,171.1,274.1z M31.6,286.1H30v-3.6h-4.3v3.6h-1.6v-8.4h1.6v3.5H30v-3.5h1.6V286.1z M40.2,286.1l-0.8-1.9
		h-4.2l-0.8,1.9h-1.6l3.8-8.4H38l3.8,8.4H40.2z M45.5,286.2c-1.3,0-2.6-0.4-3.3-1l0.5-1.2c0.7,0.5,1.7,0.9,2.8,0.9
		c1.3,0,1.9-0.5,1.9-1.1c0-1.8-5-0.6-5-3.7c0-1.4,1.1-2.5,3.4-2.5c1,0,2.1,0.3,2.8,0.7l-0.5,1.2c-0.8-0.4-1.6-0.7-2.3-0.7
		c-1.3,0-1.8,0.5-1.8,1.1c0,1.8,5,0.6,5,3.7C48.9,285.1,47.8,286.2,45.5,286.2z M53.5,286.1H52V279h-2.8v-1.3h7.1v1.3h-2.8V286.1z
		 M63.4,286.1l-0.8-1.9h-4.2l-0.8,1.9h-1.6l3.8-8.4h1.5l3.8,8.4H63.4z M73.1,286.1h-3.7v-8.4h3.7c2.7,0,4.6,1.7,4.6,4.2
		C77.6,284.4,75.8,286.1,73.1,286.1z M80.9,286.1h-1.6v-8.4h1.6V286.1z M87.1,284.9c0.9,0,1.6-0.3,2.2-1l1,1c-0.8,0.9-2,1.4-3.3,1.4
		c-2.6,0-4.5-1.8-4.5-4.3s1.9-4.3,4.5-4.3c1.4,0,2.5,0.5,3.3,1.4l-1,1c-0.6-0.7-1.4-1-2.2-1c-1.7,0-3,1.2-3,3
		C84.1,283.6,85.4,284.9,87.1,284.9z M93.4,286.1h-1.6v-8.4h1.6V286.1z M102,286.1h-6.3v-8.4h6.1v1.3h-4.6v2.2h4v1.3h-4v2.3h4.7
		V286.1z M111.4,286.1l0-5.6l-2.8,4.6H108l-2.8-4.5v5.5h-1.5v-8.4h1.3l3.3,5.6l3.3-5.6h1.3l0,8.4L111.4,286.1L111.4,286.1z
		 M119.4,286.1h-4.2v-8.4h3.9c2,0,3.1,0.9,3.1,2.2c0,0.9-0.4,1.5-1.1,1.9c0.9,0.3,1.5,1,1.5,2.1
		C122.6,285.3,121.5,286.1,119.4,286.1z M129.8,286.1l-1.7-2.5c-0.1,0-0.2,0-0.3,0h-1.9v2.5h-1.6v-8.4h3.5c2.2,0,3.6,1.1,3.6,3
		c0,1.3-0.6,2.2-1.8,2.6l1.9,2.8L129.8,286.1L129.8,286.1z M139.4,286.1h-6.3v-8.4h6.1v1.3h-4.6v2.2h4v1.3h-4v2.3h4.7V286.1z
		 M149.9,286.1h-6.2v-1l3.3-3.2c0.8-0.8,1-1.3,1-1.7c0-0.8-0.5-1.2-1.6-1.2c-0.8,0-1.5,0.3-2,0.9l-1.1-0.8c0.6-0.9,1.8-1.4,3.2-1.4
		c1.8,0,3,0.9,3,2.4c0,0.8-0.2,1.6-1.4,2.6l-2.2,2.1h4L149.9,286.1L149.9,286.1z M154.3,286.2c-2,0-3.5-1.6-3.5-4.3s1.5-4.3,3.5-4.3
		c2,0,3.5,1.6,3.5,4.3S156.3,286.2,154.3,286.2z M164.9,286.1h-6.2v-1l3.3-3.2c0.8-0.8,1-1.3,1-1.7c0-0.8-0.5-1.2-1.6-1.2
		c-0.8,0-1.5,0.3-2,0.9l-1.1-0.8c0.6-0.9,1.8-1.4,3.2-1.4c1.8,0,3,0.9,3,2.4c0,0.8-0.2,1.6-1.4,2.6l-2.2,2.1h4L164.9,286.1
		L164.9,286.1z M171.9,286.1h-6.2v-1l3.3-3.2c0.8-0.8,1-1.3,1-1.7c0-0.8-0.5-1.2-1.6-1.2c-0.8,0-1.5,0.3-2,0.9l-1.1-0.8
		c0.6-0.9,1.8-1.4,3.2-1.4c1.8,0,3,0.9,3,2.4c0,0.8-0.2,1.6-1.4,2.6l-2.2,2.1h4L171.9,286.1L171.9,286.1z"/>
</g>
<g id="Grupo_27_1_" transform="translate(1580.558 -1808.78)">
	<path id="Trazado_233_1_" class="st2" d="M-1521.7,1884.1c-0.2,0.1-0.3,0.2-0.5,0.2c-0.2,0.1-0.5,0.1-0.7,0.2
		c-0.3,0.1-0.5,0.1-0.8,0.1c-0.6,0-1.1-0.1-1.6-0.3c-0.5-0.2-0.9-0.5-1.3-0.9c-0.4-0.4-0.7-0.9-0.8-1.5c-0.2-0.6-0.3-1.3-0.3-2
		c0-0.7,0.1-1.3,0.3-2c0.2-0.5,0.5-1,0.9-1.5c0.4-0.4,0.8-0.7,1.3-0.9c0.5-0.2,1.1-0.3,1.7-0.3c0.5,0,0.9,0.1,1.3,0.2
		c0.4,0.1,0.7,0.2,1.1,0.4c-0.1,0.2-0.1,0.3-0.2,0.5c0,0.2-0.1,0.4-0.1,0.5l-0.1,0c-0.1-0.1-0.2-0.2-0.3-0.3
		c-0.2-0.1-0.3-0.3-0.5-0.4c-0.2-0.1-0.4-0.2-0.6-0.3c-0.2-0.1-0.5-0.1-0.8-0.1c-0.4,0-0.8,0.1-1.2,0.2s-0.7,0.4-1,0.8
		c-0.3,0.4-0.5,0.8-0.7,1.3c-0.2,0.6-0.2,1.2-0.2,1.9c0,0.6,0.1,1.3,0.2,1.9c0.1,0.5,0.3,0.9,0.7,1.3c0.3,0.3,0.6,0.6,1,0.8
		s0.8,0.3,1.2,0.3c0.3,0,0.5,0,0.8-0.1c0.2-0.1,0.4-0.2,0.6-0.3c0.2-0.1,0.3-0.2,0.5-0.4c0.2-0.1,0.3-0.2,0.4-0.3l0.1,0.1l-0.1,0.8
		C-1521.5,1884-1521.6,1884-1521.7,1884.1"/>
	<path id="Trazado_234_1_" class="st2" d="M-1520.2,1879.8c0.1-0.4,0.4-0.7,0.6-1c0.2-0.2,0.6-0.4,0.9-0.6c0.3-0.1,0.6-0.2,1-0.2
		c0.3,0,0.7,0.1,1,0.2c0.3,0.1,0.6,0.3,0.9,0.6c0.3,0.3,0.5,0.6,0.6,1c0.2,0.5,0.3,1,0.2,1.5c0,0.5-0.1,1-0.2,1.5
		c-0.1,0.4-0.4,0.7-0.6,1c-0.2,0.2-0.5,0.4-0.9,0.6c-0.3,0.1-0.7,0.2-1,0.2s-0.7-0.1-1-0.2c-0.3-0.1-0.6-0.3-0.9-0.6
		c-0.3-0.3-0.5-0.6-0.6-1c-0.2-0.5-0.2-1-0.2-1.5C-1520.4,1880.8-1520.3,1880.2-1520.2,1879.8 M-1519.3,1882.3
		c0.1,0.3,0.1,0.6,0.3,0.9c0.1,0.2,0.3,0.5,0.5,0.6c0.2,0.2,0.5,0.2,0.8,0.2c0.3,0,0.6-0.1,0.8-0.2c0.2-0.2,0.4-0.4,0.5-0.6
		c0.2-0.3,0.2-0.6,0.3-0.9c0.1-0.3,0.1-0.7,0.1-1.1c0-0.3,0-0.7-0.1-1.1c-0.1-0.3-0.1-0.6-0.3-0.9c-0.1-0.3-0.3-0.5-0.5-0.6
		c-0.2-0.2-0.5-0.2-0.8-0.2c-0.3,0-0.6,0.1-0.8,0.2c-0.2,0.2-0.4,0.4-0.5,0.6c-0.1,0.3-0.2,0.6-0.3,0.9c-0.1,0.3-0.1,0.7-0.1,1.1
		C-1519.4,1881.6-1519.4,1882-1519.3,1882.3"/>
	<path id="Trazado_235_1_" class="st2" d="M-1513.7,1879.4c0-0.4,0-0.8-0.1-1.2c0.2,0,0.3,0.1,0.5,0.1c0.1,0,0.1,0,0.2,0
		c0.1,0,0.2,0,0.2-0.1c0,0.3,0,0.7,0,1.1h0c0.3-0.7,0.9-1.2,1.7-1.2c0.2,0,0.4,0,0.5,0.1c0.2,0.1,0.3,0.2,0.5,0.3
		c0.1,0.1,0.3,0.2,0.4,0.4c0.1,0.2,0.2,0.3,0.2,0.5h0c0.2-0.4,0.4-0.7,0.7-1c0.3-0.2,0.7-0.3,1.1-0.3c0.2,0,0.5,0,0.7,0.1
		c0.2,0.1,0.4,0.2,0.6,0.4c0.2,0.2,0.3,0.4,0.4,0.7c0.1,0.3,0.1,0.6,0.1,0.9c0,0.2,0,0.3,0,0.5s0,0.4,0,0.6s0,0.5,0,0.8s0,0.6,0,1
		c0,0.2,0,0.5,0,0.7s0,0.5,0,0.7c-0.1,0-0.2,0-0.2,0h-0.5c-0.1,0-0.2,0-0.2,0c0-0.2,0.1-0.7,0.1-1.3s0-1.6,0-2.8
		c0-0.2,0-0.4-0.1-0.6c0-0.2-0.1-0.3-0.2-0.5c-0.1-0.1-0.2-0.3-0.3-0.3c-0.2-0.1-0.4-0.1-0.6-0.1c-0.2,0-0.5,0.1-0.7,0.2
		c-0.2,0.1-0.3,0.3-0.4,0.4c-0.1,0.1-0.1,0.2-0.1,0.3c-0.1,0.1-0.1,0.3-0.1,0.4c0,0.2,0,0.5,0,0.8c0,0.3,0,0.8,0,1.4
		c0,0.4,0,0.7,0,1s0,0.7,0.1,1c-0.2,0-0.3,0-0.5,0s-0.3,0-0.5,0c0-0.5,0.1-1,0.1-1.5s0-1,0-1.5c0-0.4,0-0.7,0-1s0-0.4,0-0.5
		c0-0.1,0-0.2-0.1-0.3c0-0.1-0.1-0.2-0.1-0.3c-0.1-0.2-0.2-0.3-0.4-0.4c-0.2-0.1-0.3-0.2-0.5-0.2c-0.4,0-0.8,0.2-1.1,0.6
		c-0.3,0.5-0.4,1-0.3,1.6v1.1c0,0.4,0,0.8,0,1.2s0,0.8,0.1,1.2c-0.2,0-0.3,0-0.5,0s-0.3,0-0.5,0c0-0.4,0.1-0.8,0.1-1.2
		c0-0.4,0-0.8,0-1.2v-1.4C-1513.7,1880.2-1513.7,1879.8-1513.7,1879.4"/>
	<path id="Trazado_236_1_" class="st2" d="M-1504,1875.4c0.1-0.1,0.2-0.2,0.4-0.2s0.3,0.1,0.4,0.2c0.1,0.1,0.2,0.3,0.2,0.5
		c0,0.2-0.1,0.3-0.2,0.5c-0.1,0.1-0.2,0.2-0.4,0.2c-0.2,0-0.3-0.1-0.4-0.2c-0.1-0.1-0.2-0.3-0.2-0.5
		C-1504.2,1875.7-1504.2,1875.5-1504,1875.4 M-1504.1,1879.4c0-0.4,0-0.8-0.1-1.2c0.2,0,0.3,0.1,0.5,0.1s0.3,0,0.5-0.1
		c0,0.4-0.1,0.8-0.1,1.2s0,0.8,0,1.2v1.4c0,0.4,0,0.8,0,1.2s0,0.8,0.1,1.2c-0.2,0-0.3,0-0.5,0s-0.3,0-0.5,0c0-0.3,0.1-0.7,0.1-1.2
		s0-0.8,0-1.2v-1.4C-1504.1,1880.2-1504.1,1879.8-1504.1,1879.4"/>
	<path id="Trazado_237_1_" class="st2" d="M-1501.1,1883.4c0.1,0.1,0.2,0.2,0.3,0.3c0.1,0.1,0.2,0.2,0.4,0.2
		c0.1,0.1,0.3,0.1,0.4,0.1c0.1,0,0.3,0,0.4-0.1c0.1-0.1,0.2-0.1,0.3-0.2c0.1-0.1,0.2-0.2,0.2-0.4c0.1-0.2,0.1-0.3,0.1-0.5
		c0-0.2-0.1-0.4-0.2-0.6c-0.1-0.2-0.3-0.3-0.5-0.3c-0.2-0.1-0.4-0.2-0.7-0.2c-0.2-0.1-0.4-0.2-0.6-0.3c-0.2-0.1-0.4-0.3-0.5-0.5
		c-0.2-0.3-0.2-0.6-0.2-0.9c0-0.3,0-0.5,0.1-0.8c0.1-0.2,0.2-0.4,0.4-0.6c0.2-0.2,0.4-0.3,0.6-0.4c0.3-0.1,0.5-0.2,0.8-0.2
		c0.2,0,0.5,0,0.7,0.1c0.2,0.1,0.4,0.2,0.5,0.2c-0.1,0.2-0.1,0.3-0.2,0.5c-0.1,0.2-0.1,0.3-0.1,0.4h-0.1c-0.1-0.2-0.2-0.4-0.3-0.6
		c-0.2-0.2-0.4-0.3-0.6-0.2c-0.1,0-0.2,0-0.3,0.1c-0.1,0.1-0.2,0.1-0.3,0.2c-0.1,0.1-0.2,0.2-0.2,0.3c-0.1,0.2-0.1,0.3-0.1,0.5
		c0,0.2,0.1,0.5,0.2,0.7c0.1,0.2,0.3,0.3,0.5,0.4c0.2,0.1,0.4,0.2,0.6,0.2c0.2,0.1,0.4,0.2,0.6,0.3c0.2,0.1,0.4,0.3,0.5,0.5
		c0.2,0.3,0.2,0.6,0.2,0.9c0,0.2-0.1,0.5-0.2,0.7c-0.1,0.2-0.2,0.5-0.4,0.7c-0.2,0.2-0.4,0.4-0.6,0.5c-0.3,0.1-0.6,0.2-0.8,0.2
		c-0.3,0-0.6,0-0.9-0.1c-0.2-0.1-0.4-0.2-0.6-0.3c0.1-0.2,0.1-0.3,0.2-0.5c0-0.2,0.1-0.3,0.1-0.5h0.2
		C-1501.2,1883.2-1501.2,1883.3-1501.1,1883.4"/>
	<path id="Trazado_238_1_" class="st2" d="M-1496.6,1875.4c0.1-0.1,0.2-0.2,0.4-0.2s0.3,0.1,0.4,0.2c0.1,0.1,0.2,0.3,0.2,0.5
		c0,0.2-0.1,0.3-0.2,0.5c-0.1,0.1-0.2,0.2-0.4,0.2c-0.2,0-0.3-0.1-0.4-0.2c-0.1-0.1-0.2-0.3-0.2-0.5
		C-1496.7,1875.7-1496.7,1875.5-1496.6,1875.4 M-1496.6,1879.4c0-0.4,0-0.8-0.1-1.2c0.2,0,0.3,0.1,0.5,0.1s0.3,0,0.5-0.1
		c0,0.4-0.1,0.8-0.1,1.2s0,0.8,0,1.2v1.4c0,0.4,0,0.8,0,1.2s0,0.8,0.1,1.2c-0.2,0-0.3,0-0.5,0s-0.3,0-0.5,0c0-0.3,0.1-0.7,0.1-1.2
		s0-0.8,0-1.2v-1.4C-1496.6,1880.2-1496.6,1879.8-1496.6,1879.4"/>
	<path id="Trazado_239_1_" class="st2" d="M-1494,1879.8c0.1-0.4,0.4-0.7,0.6-1c0.2-0.2,0.6-0.4,0.9-0.6c0.3-0.1,0.6-0.2,1-0.2
		c0.3,0,0.7,0.1,1,0.2c0.3,0.1,0.6,0.3,0.9,0.6c0.3,0.3,0.5,0.6,0.6,1c0.2,0.5,0.3,1,0.2,1.5c0,0.5-0.1,1-0.2,1.5
		c-0.1,0.4-0.3,0.7-0.6,1c-0.2,0.2-0.5,0.4-0.9,0.6c-0.3,0.1-0.7,0.2-1,0.2c-0.3,0-0.7-0.1-1-0.2c-0.3-0.1-0.6-0.3-0.9-0.6
		c-0.3-0.3-0.5-0.6-0.6-1c-0.2-0.5-0.2-1-0.2-1.5S-1494.1,1880.2-1494,1879.8 M-1493.1,1882.3c0.1,0.3,0.1,0.6,0.3,0.9
		c0.1,0.2,0.3,0.5,0.5,0.6c0.2,0.2,0.5,0.2,0.8,0.2c0.3,0,0.6-0.1,0.8-0.2c0.2-0.2,0.4-0.4,0.5-0.6c0.2-0.3,0.2-0.6,0.3-0.9
		c0.1-0.3,0.1-0.7,0.1-1.1c0-0.4,0-0.7-0.1-1.1c-0.1-0.3-0.2-0.6-0.3-0.9c-0.1-0.3-0.3-0.5-0.5-0.6c-0.2-0.2-0.5-0.2-0.8-0.2
		c-0.3,0-0.6,0.1-0.8,0.2c-0.2,0.2-0.4,0.4-0.5,0.6c-0.1,0.3-0.2,0.6-0.3,0.9c-0.1,0.3-0.1,0.7-0.1,1.1
		C-1493.2,1881.6-1493.2,1882-1493.1,1882.3 M-1490.1,1874.8c0.1,0,0.2,0.1,0.2,0.1c0.1,0.1,0.1,0.2,0.1,0.3c0,0.1,0,0.3-0.1,0.4
		c-0.1,0.1-0.2,0.2-0.3,0.2l-1.7,1.2h-0.5l1.7-1.9C-1490.5,1874.9-1490.3,1874.8-1490.1,1874.8"/>
	<path id="Trazado_240_1_" class="st2" d="M-1484.2,1879.2c-0.2-0.3-0.5-0.5-0.9-0.5c-0.5,0-0.9,0.2-1.2,0.6c-0.3,0.5-0.4,1-0.4,1.6
		v1.1c0,0.4,0,0.8,0,1.2s0,0.8,0.1,1.2c-0.2,0-0.3,0-0.5,0s-0.3,0-0.5,0c0-0.3,0.1-0.7,0.1-1.2s0-0.8,0-1.2v-1.4c0-0.4,0-0.8,0-1.2
		s0-0.8-0.1-1.2c0.2,0,0.3,0.1,0.5,0.1c0.1,0,0.1,0,0.2,0c0.1,0,0.2,0,0.3-0.1c0,0.3,0,0.7,0,1.1h0c0.2-0.3,0.4-0.6,0.8-0.9
		c0.3-0.2,0.7-0.3,1.1-0.3c0.2,0,0.4,0,0.6,0.1c0.2,0.1,0.4,0.2,0.6,0.4c0.2,0.2,0.3,0.4,0.4,0.7c0.1,0.3,0.2,0.7,0.2,1.1
		c0,0.4,0,0.8,0,1.2s0,0.8,0,1.3v0.8c0,0.1,0,0.3,0,0.4s0,0.3,0,0.4c-0.2,0-0.3,0-0.5,0c-0.2,0-0.3,0-0.5,0c0-0.5,0-0.9,0.1-1.4
		s0-1,0-1.5v-0.8C-1483.8,1880.2-1483.9,1879.7-1484.2,1879.2"/>
	<path id="Trazado_241_1_" class="st2" d="M-1474.3,1881c-1-1.2-2-2.4-2.9-3.6c0,0.2,0,0.6,0,1s0,1,0,1.7c0,0.2,0,0.4,0,0.7
		s0,0.6,0,0.8s0,0.6,0,0.9s0,0.6,0,0.8s0,0.5,0,0.7c0,0.2,0,0.3,0,0.4c-0.1,0-0.3,0-0.4,0c-0.1,0-0.3,0-0.4,0c0-0.1,0-0.2,0.1-0.5
		s0-0.5,0.1-0.8s0-0.7,0.1-1.1s0-0.8,0.1-1.2s0-0.8,0-1.1s0-0.7,0-1c0-0.8,0-1.6,0-2.2s0-1.1,0-1.3h0.2l1.5,1.8
		c0.5,0.7,1,1.3,1.6,1.9s1,1.2,1.5,1.8s0.9,1.1,1.2,1.5v-1.8c0-0.9,0-1.8,0-2.7s0-1.7-0.1-2.4c0.1,0,0.2,0.1,0.4,0.1
		c0.1,0,0.2,0,0.4-0.1c0,0.2,0,0.5-0.1,0.9c0,0.4,0,0.8-0.1,1.2c0,0.4,0,0.9-0.1,1.3s0,0.8,0,1v1.7c0,0.3,0,0.7,0,1s0,0.6,0,0.9
		c0,0.3,0,0.5,0,0.8v0.4h-0.2C-1472.4,1883.4-1473.4,1882.2-1474.3,1881"/>
	<path id="Trazado_242_1_" class="st2" d="M-1468.4,1878.2c0.3-0.1,0.6-0.2,0.9-0.2c0.2,0,0.5,0,0.7,0.1c0.2,0.1,0.4,0.2,0.6,0.4
		c0.2,0.2,0.3,0.4,0.4,0.6c0.1,0.2,0.2,0.5,0.1,0.8c0,0.5,0,1,0,1.5s0,1,0,1.6c0,0.1,0,0.2,0,0.3c0,0.1,0,0.2,0,0.3
		c0,0.1,0.1,0.2,0.1,0.2c0.1,0.1,0.2,0.1,0.2,0.1h0.1c0,0,0.1,0,0.1,0v0.3c-0.1,0.1-0.2,0.1-0.3,0.1c-0.1,0-0.3,0-0.4,0
		c-0.2,0-0.4-0.1-0.6-0.2c-0.1-0.2-0.2-0.3-0.2-0.6c-0.2,0.3-0.5,0.5-0.8,0.7c-0.3,0.2-0.6,0.2-0.9,0.2c-0.2,0-0.4,0-0.6-0.1
		c-0.2-0.1-0.3-0.2-0.5-0.3c-0.1-0.1-0.3-0.3-0.3-0.5c-0.1-0.2-0.1-0.4-0.1-0.7c0-0.4,0.1-0.9,0.4-1.2c0.3-0.3,0.7-0.5,1.2-0.6
		c0.4-0.1,0.7-0.1,0.9-0.2c0.2,0,0.3-0.1,0.5-0.2c0.1,0,0.2-0.1,0.2-0.2c0-0.1,0-0.2,0-0.3c0-0.2,0-0.4-0.1-0.6
		c0-0.2-0.1-0.4-0.2-0.5c-0.1-0.1-0.2-0.3-0.4-0.3c-0.2-0.1-0.4-0.2-0.6-0.2c-0.3,0-0.6,0.1-0.8,0.2s-0.5,0.4-0.6,0.7h-0.1v-0.7
		C-1469,1878.5-1468.7,1878.3-1468.4,1878.2 M-1467,1881.2c-0.2,0-0.3,0.1-0.5,0.1c-0.2,0-0.3,0.1-0.5,0.2s-0.3,0.1-0.4,0.2
		c-0.1,0.1-0.2,0.2-0.3,0.4c-0.1,0.2-0.1,0.4-0.1,0.6c0,0.3,0.1,0.7,0.3,0.9c0.2,0.2,0.4,0.3,0.7,0.3c0.3,0,0.6-0.1,0.8-0.3
		c0.2-0.2,0.4-0.4,0.5-0.7l0-1.9C-1466.7,1881.2-1466.8,1881.2-1467,1881.2"/>
	<path id="Trazado_243_1_" class="st2" d="M-1463.9,1879.8c0.1-0.4,0.4-0.7,0.7-1c0.3-0.3,0.6-0.5,0.9-0.6c0.3-0.1,0.7-0.2,1-0.2
		c0.4,0,0.8,0.1,1.1,0.2c0.3,0.1,0.5,0.2,0.7,0.4c0,0.1-0.1,0.3-0.1,0.4s-0.1,0.3-0.1,0.4h-0.1c-0.1-0.1-0.1-0.2-0.2-0.3
		c-0.1-0.1-0.2-0.2-0.3-0.3s-0.3-0.2-0.4-0.3c-0.2-0.1-0.3-0.1-0.5-0.1c-0.3,0-0.6,0.1-0.9,0.2c-0.2,0.1-0.5,0.3-0.6,0.6
		c-0.2,0.3-0.3,0.6-0.3,0.9c-0.1,0.4-0.1,0.7-0.1,1.1c-0.1,0.7,0.1,1.4,0.5,2c0.3,0.5,0.9,0.7,1.4,0.7c0.2,0,0.3,0,0.4-0.1
		c0.2-0.1,0.3-0.1,0.5-0.2c0.2-0.1,0.3-0.2,0.4-0.3c0.1-0.1,0.2-0.2,0.3-0.4l0,0c0,0.2-0.1,0.4-0.1,0.6c-0.2,0.2-0.5,0.4-0.8,0.5
		c-0.3,0.2-0.7,0.2-1,0.2c-0.3,0-0.7-0.1-1-0.2c-0.3-0.1-0.6-0.3-0.9-0.6c-0.3-0.3-0.5-0.6-0.6-1c-0.2-0.5-0.3-1-0.2-1.5
		C-1464.2,1880.8-1464.1,1880.3-1463.9,1879.8"/>
	<path id="Trazado_244_1_" class="st2" d="M-1457.9,1875.4c0.1-0.1,0.2-0.2,0.4-0.2s0.3,0.1,0.4,0.2c0.1,0.1,0.2,0.3,0.2,0.5
		c0,0.2-0.1,0.3-0.2,0.5c-0.1,0.1-0.2,0.2-0.4,0.2s-0.3-0.1-0.4-0.2c-0.1-0.1-0.2-0.3-0.2-0.5
		C-1458.1,1875.7-1458,1875.5-1457.9,1875.4 M-1457.9,1879.4c0-0.4,0-0.8-0.1-1.2c0.2,0,0.3,0.1,0.5,0.1s0.3,0,0.5-0.1
		c0,0.4-0.1,0.8-0.1,1.2s0,0.8,0,1.2v1.4c0,0.4,0,0.8,0,1.2s0,0.8,0.1,1.2c-0.2,0-0.3,0-0.5,0s-0.3,0-0.5,0c0-0.3,0.1-0.7,0.1-1.2
		s0-0.8,0-1.2v-1.4C-1457.9,1880.2-1457.9,1879.8-1457.9,1879.4"/>
	<path id="Trazado_245_1_" class="st2" d="M-1455.3,1879.8c0.1-0.4,0.4-0.7,0.7-1c0.2-0.2,0.6-0.4,0.9-0.6c0.3-0.1,0.6-0.2,1-0.2
		c0.3,0,0.7,0.1,1,0.2c0.3,0.1,0.6,0.3,0.9,0.6c0.3,0.3,0.5,0.6,0.6,1c0.2,0.5,0.2,1,0.2,1.5c0,0.5-0.1,1-0.2,1.5
		c-0.1,0.4-0.4,0.7-0.6,1c-0.2,0.2-0.6,0.4-0.9,0.6c-0.3,0.1-0.7,0.2-1,0.2s-0.7-0.1-1-0.2c-0.3-0.1-0.6-0.3-0.9-0.6
		c-0.3-0.3-0.5-0.6-0.7-1c-0.2-0.5-0.2-1-0.2-1.5C-1455.5,1880.8-1455.4,1880.2-1455.3,1879.8 M-1454.5,1882.3
		c0.1,0.3,0.2,0.6,0.3,0.9c0.1,0.3,0.3,0.5,0.5,0.6c0.2,0.2,0.5,0.2,0.8,0.2c0.3,0,0.6-0.1,0.8-0.2c0.2-0.2,0.4-0.4,0.5-0.6
		c0.2-0.3,0.2-0.6,0.3-0.9c0.1-0.3,0.1-0.7,0.1-1.1c0-0.3,0-0.7-0.1-1.1c-0.1-0.3-0.1-0.6-0.3-0.9c-0.1-0.3-0.3-0.5-0.5-0.6
		c-0.2-0.2-0.5-0.2-0.8-0.2c-0.3,0-0.6,0.1-0.8,0.2c-0.2,0.2-0.4,0.4-0.5,0.6c-0.1,0.3-0.2,0.6-0.3,0.9c-0.1,0.3-0.1,0.7-0.1,1.1
		C-1454.5,1881.6-1454.5,1882-1454.5,1882.3"/>
	<path id="Trazado_246_1_" class="st2" d="M-1445.5,1879.2c-0.2-0.3-0.5-0.5-0.9-0.5c-0.5,0-0.9,0.2-1.2,0.6c-0.3,0.5-0.4,1-0.4,1.6
		v1.1c0,0.4,0,0.8,0,1.2s0,0.8,0.1,1.2c-0.2,0-0.3,0-0.5,0s-0.3,0-0.5,0c0-0.3,0.1-0.7,0.1-1.2s0-0.8,0-1.2v-1.4c0-0.4,0-0.8,0-1.2
		s0-0.8-0.1-1.2c0.2,0,0.3,0.1,0.5,0.1c0.1,0,0.1,0,0.2,0l0.3-0.1c0,0.3,0,0.7,0,1.1h0c0.2-0.3,0.4-0.6,0.8-0.9
		c0.3-0.2,0.7-0.3,1-0.3c0.2,0,0.4,0,0.6,0.1c0.2,0.1,0.4,0.2,0.6,0.4c0.2,0.2,0.3,0.4,0.4,0.7c0.1,0.3,0.2,0.7,0.2,1.1
		c0,0.4,0,0.8,0,1.2s0,0.8,0,1.3v1.3c0,0.1,0,0.3,0,0.4c-0.2,0-0.3,0-0.5,0s-0.3,0-0.5,0c0-0.5,0-0.9,0.1-1.4s0-1,0-1.5v-0.8
		C-1445.1,1880.2-1445.2,1879.7-1445.5,1879.2"/>
	<path id="Trazado_247_1_" class="st2" d="M-1441.5,1878.2c0.3-0.1,0.6-0.2,0.9-0.2c0.3,0,0.5,0,0.8,0.1c0.2,0.1,0.4,0.2,0.6,0.4
		c0.2,0.2,0.3,0.4,0.4,0.6c0.1,0.2,0.1,0.5,0.1,0.8c0,0.5,0,1,0,1.5s0,1,0,1.6c0,0.1,0,0.2,0,0.3c0,0.1,0,0.2,0.1,0.3
		c0,0.1,0.1,0.2,0.1,0.2c0.1,0.1,0.2,0.1,0.2,0.1h0.1c0,0,0.1,0,0.1,0v0.3c-0.1,0.1-0.2,0.1-0.3,0.1c-0.1,0-0.3,0-0.4,0
		c-0.2,0-0.4-0.1-0.6-0.2c-0.1-0.2-0.2-0.3-0.2-0.6c-0.2,0.3-0.5,0.5-0.8,0.7c-0.3,0.2-0.6,0.2-1,0.2c-0.2,0-0.4,0-0.5-0.1
		c-0.2-0.1-0.3-0.2-0.5-0.3c-0.1-0.2-0.2-0.3-0.3-0.5c-0.1-0.2-0.1-0.4-0.1-0.7c0-0.4,0.1-0.9,0.4-1.2c0.3-0.3,0.7-0.5,1.2-0.6
		c0.3-0.1,0.6-0.1,0.9-0.2c0.2,0,0.3-0.1,0.5-0.2c0.1,0,0.2-0.1,0.2-0.2c0-0.1,0-0.2,0-0.3c0-0.2,0-0.4-0.1-0.6
		c0-0.2-0.1-0.4-0.2-0.5c-0.1-0.2-0.2-0.3-0.4-0.3c-0.2-0.1-0.4-0.2-0.6-0.2c-0.3,0-0.6,0.1-0.8,0.2c-0.2,0.2-0.5,0.4-0.6,0.7h-0.1
		v-0.7C-1442.2,1878.5-1441.9,1878.3-1441.5,1878.2 M-1440.1,1881.2c-0.2,0-0.3,0.1-0.5,0.1c-0.2,0-0.3,0.1-0.5,0.2
		s-0.3,0.1-0.4,0.2c-0.1,0.1-0.2,0.2-0.3,0.4c-0.1,0.2-0.1,0.4-0.1,0.6c0,0.3,0.1,0.7,0.3,0.9c0.2,0.2,0.4,0.3,0.7,0.3
		c0.3,0,0.6-0.1,0.8-0.3c0.2-0.2,0.4-0.4,0.5-0.7l0.1-1.9C-1439.8,1881.2-1440,1881.2-1440.1,1881.2"/>
	<path id="Trazado_248_1_" class="st2" d="M-1436.7,1877.3c0-0.3,0-0.7,0-1s0-0.7,0-1c0-0.3,0-0.6,0-0.8c0.2,0,0.3,0.1,0.5,0.1
		s0.3,0,0.5-0.1c0,0.2,0,0.5-0.1,0.8c0,0.3,0,0.6,0,1s0,0.7,0,1s0,0.7,0,1v2.4c0,0.3,0,0.6,0,1s0,0.7,0,1s0,0.7,0,1s0,0.6,0.1,0.8
		c-0.2,0-0.3,0-0.5,0s-0.3,0-0.5,0c0-0.2,0-0.5,0-0.8s0-0.6,0-1s0-0.7,0-1s0-0.7,0-1v-2.4C-1436.7,1878-1436.7,1877.6-1436.7,1877.3
		"/>
	<path id="Trazado_249_1_" class="st2" d="M-1515,1894.5c-0.1,0.2-0.2,0.3-0.2,0.4c-0.1,0.2-0.2,0.3-0.4,0.4
		c-0.2,0.1-0.3,0.3-0.5,0.3c-0.2,0.1-0.5,0.1-0.7,0.1c-0.3,0-0.6-0.1-0.8-0.2c-0.3-0.1-0.5-0.3-0.7-0.6c-0.2-0.3-0.4-0.6-0.5-1
		c-0.1-0.5-0.2-1-0.2-1.5c0-0.5,0.1-1,0.2-1.4c0.1-0.4,0.3-0.7,0.6-1c0.2-0.3,0.5-0.5,0.8-0.6c0.3-0.1,0.6-0.2,0.9-0.2
		c0.8,0,1.5,0.5,1.7,1.3h0v-1.3c0-0.3,0-0.7,0-1s0-0.7,0-1s0-0.6,0-0.9s0-0.5,0-0.7c0.1,0,0.2,0,0.3,0c0.1,0,0.2,0,0.2,0
		s0.2,0,0.2,0c0.1,0,0.2,0,0.3,0c0,0.3,0,0.7-0.1,1.2s0,1.1,0,1.8s0,1.3,0,2c0,0.7,0,1.3,0,1.8c0,0.6,0,1.1,0,1.6s0,1,0,1.5
		c-0.2,0-0.3,0-0.4,0c-0.1,0-0.3,0-0.4,0L-1515,1894.5L-1515,1894.5z M-1518,1894c0.1,0.3,0.2,0.6,0.4,0.8c0.1,0.2,0.3,0.3,0.5,0.4
		c0.2,0.1,0.4,0.1,0.6,0.1c0.3,0,0.6-0.1,0.8-0.3s0.4-0.4,0.5-0.7c0.2-0.3,0.3-0.6,0.3-0.9c0.1-0.4,0.1-0.7,0.1-1.1
		c0.1-0.7-0.1-1.3-0.4-1.9c-0.2-0.4-0.7-0.7-1.2-0.7c-0.2,0-0.5,0.1-0.7,0.2c-0.2,0.2-0.4,0.4-0.5,0.6c-0.1,0.3-0.2,0.6-0.3,0.9
		c-0.1,0.4-0.1,0.7-0.1,1.1C-1518.2,1893.2-1518.1,1893.6-1518,1894"/>
	<path id="Trazado_250_1_" class="st2" d="M-1512.4,1890.3c0.4-0.6,1.2-0.9,1.9-0.9c0.4,0,0.7,0.1,1,0.2c0.3,0.1,0.5,0.3,0.7,0.6
		c0.2,0.2,0.3,0.5,0.4,0.9c0.1,0.3,0.1,0.7,0.1,1c0,0.1,0,0.2,0,0.2s0,0.2,0,0.2c-0.4,0-0.8,0-1.2,0c-0.4,0-0.8,0-1.2,0
		c-0.2,0-0.5,0-0.7,0s-0.5,0-0.7,0c0,0.1,0,0.1,0,0.2v0.2c0,0.3,0.1,0.6,0.1,1c0.1,0.3,0.2,0.5,0.4,0.8c0.2,0.2,0.4,0.4,0.6,0.5
		c0.2,0.1,0.5,0.2,0.8,0.2c0.2,0,0.3,0,0.5-0.1c0.2-0.1,0.3-0.1,0.5-0.2c0.2-0.1,0.3-0.2,0.4-0.3s0.2-0.2,0.3-0.4l0.1,0l-0.1,0.6
		c-0.2,0.2-0.5,0.4-0.8,0.5c-0.3,0.1-0.7,0.2-1,0.2c-0.4,0-0.8-0.1-1.1-0.2c-0.3-0.1-0.6-0.4-0.9-0.6c-0.2-0.3-0.4-0.6-0.6-1
		c-0.1-0.4-0.2-0.8-0.2-1.2C-1513,1891.9-1512.8,1891-1512.4,1890.3 M-1511.1,1890c-0.2,0.1-0.4,0.3-0.5,0.6
		c-0.1,0.2-0.2,0.5-0.3,0.7c-0.1,0.2-0.1,0.5-0.1,0.8c0.2,0,0.5,0,0.7,0s0.5,0,0.7,0c0.2,0,0.5,0,0.8,0s0.5,0,0.7,0
		c0-0.2,0-0.5-0.1-0.7c0-0.2-0.1-0.5-0.2-0.7c-0.1-0.2-0.2-0.4-0.4-0.6c-0.2-0.2-0.5-0.2-0.7-0.2
		C-1510.7,1889.8-1510.9,1889.8-1511.1,1890"/>
	<path id="Trazado_251_1_" class="st2" d="M-1497.8,1895.7c-0.1,0-0.2,0-0.3,0h-0.6c-0.1,0-0.2,0-0.3,0c-0.1-0.2-0.1-0.4-0.2-0.7
		s-0.2-0.6-0.3-0.9s-0.2-0.6-0.3-0.9c-0.1-0.3-0.2-0.6-0.3-0.9c-0.2,0-0.5,0-0.7,0c-0.2,0-0.5,0-0.7,0c-0.2,0-0.4,0-0.7,0
		s-0.4,0-0.7,0c-0.2,0.7-0.5,1.3-0.7,1.9c-0.2,0.6-0.3,1.1-0.4,1.5c-0.1,0-0.3,0-0.4,0s-0.3,0-0.4,0c0.6-1.5,1.2-3,1.8-4.6
		s1.2-3,1.7-4.6h0.2c0.2,0.5,0.4,1.1,0.6,1.7c0.2,0.6,0.4,1.2,0.6,1.8c0.2,0.6,0.4,1.2,0.7,1.8c0.2,0.6,0.4,1.1,0.6,1.7
		s0.4,1,0.5,1.4C-1498,1895.2-1497.9,1895.5-1497.8,1895.7 M-1502.8,1891.6c0.2,0,0.4,0,0.6,0c0.2,0,0.4,0,0.6,0s0.4,0,0.6,0
		c0.2,0,0.4,0,0.6,0l-1.2-3.3L-1502.8,1891.6z"/>
	<path id="Trazado_252_1_" class="st2" d="M-1496.9,1891.1c0.2-0.4,0.4-0.7,0.7-1c0.2-0.3,0.6-0.5,0.9-0.6c0.3-0.1,0.7-0.2,1.1-0.2
		c0.4,0,0.8,0.1,1.1,0.2c0.3,0.1,0.5,0.2,0.7,0.4c-0.1,0.1-0.1,0.3-0.1,0.4s-0.1,0.3-0.1,0.4h-0.1c-0.1-0.1-0.1-0.2-0.2-0.3
		c-0.1-0.1-0.2-0.2-0.3-0.3c-0.1-0.1-0.3-0.2-0.4-0.3c-0.2-0.1-0.3-0.1-0.5-0.1c-0.3,0-0.6,0.1-0.9,0.2c-0.2,0.1-0.4,0.4-0.6,0.6
		c-0.2,0.3-0.3,0.6-0.3,0.9c-0.1,0.4-0.1,0.7-0.1,1.1c-0.1,0.7,0.1,1.4,0.5,2c0.3,0.5,0.9,0.7,1.4,0.7c0.2,0,0.3,0,0.5-0.1
		c0.2-0.1,0.3-0.1,0.5-0.2c0.2-0.1,0.3-0.2,0.4-0.3s0.2-0.2,0.3-0.4l0.1,0c0,0.2-0.1,0.4-0.1,0.6c-0.2,0.2-0.5,0.4-0.8,0.5
		c-0.3,0.1-0.7,0.2-1,0.2c-0.3,0-0.7-0.1-1-0.2c-0.3-0.1-0.6-0.3-0.9-0.6c-0.3-0.3-0.5-0.6-0.6-1c-0.2-0.5-0.3-1-0.2-1.5
		C-1497.1,1892.1-1497,1891.6-1496.9,1891.1"/>
	<path id="Trazado_253_1_" class="st2" d="M-1488.8,1890.4c-0.1,0-0.2-0.1-0.3-0.1c-0.2,0-0.3,0.1-0.5,0.1c-0.1,0.1-0.3,0.2-0.3,0.4
		c-0.1,0.2-0.2,0.4-0.2,0.6c-0.1,0.2-0.1,0.5-0.1,0.7v1.4c0,0.6,0,1,0,1.3s0,0.6,0,0.8c-0.2,0-0.3,0-0.4,0c-0.2,0-0.3,0-0.5,0
		c0-0.3,0-0.7,0-1.2s0-1.1,0-1.9v-0.4c0-0.3,0-0.7,0-1.2c0-0.4,0-0.9,0-1.5c0.1,0,0.2,0,0.2,0.1c0.1,0,0.2,0,0.2,0s0.2,0,0.2,0
		c0.1,0,0.2,0,0.2-0.1c0,0.3-0.1,0.6-0.1,0.8c0,0.2,0,0.4,0,0.5l0,0c0.4-0.9,0.9-1.4,1.5-1.4c0.1,0,0.1,0,0.2,0c0.1,0,0.1,0,0.2,0.1
		c0,0.2-0.1,0.3-0.1,0.5c0,0.2,0,0.4,0,0.6l-0.1,0.1C-1488.6,1890.5-1488.7,1890.4-1488.8,1890.4"/>
	<path id="Trazado_254_1_" class="st2" d="M-1487.2,1890.3c0.4-0.6,1.2-0.9,1.9-0.9c0.4,0,0.7,0.1,1,0.2c0.3,0.1,0.5,0.3,0.7,0.6
		c0.2,0.3,0.3,0.5,0.4,0.9c0.1,0.3,0.2,0.7,0.1,1c0,0.1,0,0.2,0,0.2s0,0.2,0,0.2c-0.4,0-0.8,0-1.2,0c-0.4,0-0.8,0-1.2,0
		c-0.2,0-0.5,0-0.7,0s-0.5,0-0.7,0c0,0.1,0,0.1,0,0.2v0.2c0,0.3,0,0.6,0.1,1c0.1,0.3,0.2,0.5,0.4,0.8c0.2,0.2,0.4,0.4,0.6,0.5
		c0.3,0.1,0.6,0.2,0.8,0.2c0.2,0,0.3,0,0.5-0.1c0.2-0.1,0.3-0.1,0.5-0.2c0.2-0.1,0.3-0.2,0.4-0.3c0.1-0.1,0.2-0.2,0.3-0.4l0.1,0
		l-0.1,0.6c-0.2,0.2-0.5,0.4-0.8,0.5c-0.3,0.1-0.7,0.2-1,0.2c-0.4,0-0.8-0.1-1.1-0.2c-0.3-0.1-0.6-0.4-0.8-0.6
		c-0.2-0.3-0.4-0.6-0.6-1c-0.1-0.4-0.2-0.8-0.2-1.2C-1487.9,1891.9-1487.7,1891-1487.2,1890.3 M-1486,1890c-0.2,0.1-0.4,0.3-0.5,0.6
		c-0.1,0.2-0.2,0.5-0.3,0.7s-0.1,0.5-0.1,0.8c0.2,0,0.5,0,0.7,0s0.5,0,0.7,0s0.5,0,0.8,0s0.5,0,0.8,0c0-0.2,0-0.5-0.1-0.7
		c0-0.3-0.1-0.5-0.2-0.7c-0.1-0.2-0.2-0.4-0.4-0.6c-0.2-0.2-0.4-0.2-0.7-0.2C-1485.5,1889.8-1485.8,1889.8-1486,1890"/>
	<path id="Trazado_255_1_" class="st2" d="M-1478,1894.5c-0.1,0.2-0.1,0.3-0.2,0.4c-0.1,0.2-0.2,0.3-0.4,0.4
		c-0.2,0.1-0.3,0.3-0.6,0.3c-0.2,0.1-0.5,0.1-0.7,0.1c-0.3,0-0.6-0.1-0.8-0.2c-0.3-0.1-0.5-0.3-0.7-0.6c-0.2-0.3-0.4-0.6-0.5-1
		c-0.1-0.5-0.2-1-0.2-1.5c0-0.5,0.1-1,0.2-1.4c0.1-0.4,0.3-0.7,0.6-1c0.2-0.3,0.5-0.5,0.8-0.6c0.3-0.1,0.6-0.2,0.9-0.2
		c0.8,0,1.5,0.5,1.7,1.3h0v-1.3c0-0.3,0-0.7,0-1s0-0.7,0-1s0-0.6,0-0.9s0-0.5,0-0.7c0.1,0,0.2,0,0.3,0c0.1,0,0.2,0,0.2,0
		s0.2,0,0.2,0c0.1,0,0.2,0,0.3,0c0,0.3-0.1,0.7-0.1,1.2s0,1.1,0,1.8s0,1.3,0,2c0,0.7,0,1.3,0,1.8c0,0.6,0,1.1,0,1.6c0,0.5,0,1,0,1.5
		c-0.2,0-0.3,0-0.4,0c-0.1,0-0.3,0-0.4,0L-1478,1894.5L-1478,1894.5z M-1481,1894c0.1,0.3,0.2,0.6,0.4,0.8c0.1,0.2,0.3,0.3,0.5,0.4
		c0.2,0.1,0.4,0.1,0.6,0.1c0.3,0,0.5-0.1,0.8-0.3c0.2-0.2,0.4-0.4,0.5-0.7c0.1-0.3,0.2-0.6,0.3-0.9c0.1-0.4,0.1-0.7,0.1-1.1
		c0-0.7-0.1-1.3-0.4-1.9c-0.2-0.4-0.7-0.7-1.2-0.7c-0.2,0-0.5,0.1-0.7,0.2c-0.2,0.2-0.4,0.4-0.5,0.6c-0.1,0.3-0.2,0.6-0.3,0.9
		c-0.1,0.4-0.1,0.7-0.1,1.1C-1481.2,1893.2-1481.1,1893.6-1481,1894"/>
	<path id="Trazado_256_1_" class="st2" d="M-1475.2,1886.7c0.1-0.1,0.2-0.2,0.4-0.2s0.3,0.1,0.4,0.2c0.1,0.1,0.2,0.3,0.2,0.5
		c0,0.2-0.1,0.3-0.2,0.5c-0.1,0.1-0.2,0.2-0.4,0.2c-0.2,0-0.3-0.1-0.4-0.2c-0.1-0.1-0.2-0.3-0.2-0.5
		C-1475.4,1887-1475.4,1886.9-1475.2,1886.7 M-1475.3,1890.7c0-0.4,0-0.8-0.1-1.2c0.2,0,0.3,0.1,0.5,0.1c0.2,0,0.3,0,0.5-0.1
		c0,0.4-0.1,0.8-0.1,1.2c0,0.4,0,0.8,0,1.2v1.4c0,0.4,0,0.8,0,1.2s0,0.8,0.1,1.2c-0.2,0-0.3,0-0.5,0s-0.3,0-0.5,0
		c0-0.3,0.1-0.7,0.1-1.2c0-0.4,0-0.9,0-1.2v-1.4C-1475.2,1891.5-1475.3,1891.1-1475.3,1890.7"/>
	<path id="Trazado_257_1_" class="st2" d="M-1471.4,1887.7c0,0.3-0.1,0.7-0.1,1s0,0.6,0,1c0.1,0,0.2,0,0.5,0s0.5,0,0.7,0
		c0,0.1,0,0.1,0,0.1v0.3c0,0,0,0.1,0,0.1c-0.1,0-0.2,0-0.3,0c-0.1,0-0.2,0-0.3,0h-0.6c0,0.1,0,0.3,0,0.4c0,0.2,0,0.5,0,0.9
		c0,0.4,0,0.7,0,1.1c0,0.4,0,0.7,0,1c0,0.2,0,0.5,0,0.7c0,0.2,0,0.4,0.1,0.6c0.1,0.2,0.1,0.3,0.3,0.5c0.2,0.1,0.3,0.2,0.5,0.2
		c0.1,0,0.2,0,0.2,0c0.1,0,0.2,0,0.3-0.1v0.3c-0.1,0-0.3,0.1-0.4,0.1s-0.3,0.1-0.4,0.1c-0.4,0-0.8-0.1-1-0.4
		c-0.3-0.3-0.4-0.8-0.3-1.2c0-0.2,0-0.5,0-0.8s0-0.6,0-0.9s0-0.7,0-1.1c0-0.4,0-0.8,0-1.3h-0.4c-0.1,0-0.1,0-0.2,0
		c-0.1,0-0.1,0-0.2,0c0-0.1,0-0.1,0-0.1v-0.3c0,0,0-0.1,0-0.1c0.3,0,0.6,0,0.7,0c0-0.2,0-0.4,0-0.7s0-0.5,0-0.8L-1471.4,1887.7
		L-1471.4,1887.7z"/>
	<path id="Trazado_258_1_" class="st2" d="M-1468.3,1889.5c0.3-0.1,0.6-0.2,0.9-0.2c0.2,0,0.5,0,0.7,0.1c0.2,0.1,0.4,0.2,0.6,0.4
		c0.2,0.2,0.3,0.4,0.4,0.6c0.1,0.2,0.1,0.5,0.1,0.8c0,0.5,0,1,0,1.5s0,1,0,1.6c0,0.1,0,0.2,0,0.3c0,0.1,0,0.2,0.1,0.3
		c0,0.1,0.1,0.2,0.1,0.2c0.1,0.1,0.2,0.1,0.2,0.1c0,0,0.1,0,0.1,0c0,0,0.1,0,0.1-0.1v0.3c-0.1,0.1-0.2,0.1-0.3,0.1
		c-0.1,0-0.3,0-0.4,0c-0.2,0-0.4-0.1-0.6-0.2c-0.1-0.2-0.2-0.4-0.2-0.6c-0.2,0.3-0.5,0.5-0.8,0.7c-0.3,0.2-0.6,0.2-1,0.2
		c-0.2,0-0.4,0-0.5-0.1c-0.2-0.1-0.3-0.2-0.5-0.3c-0.2-0.1-0.3-0.3-0.3-0.5c-0.1-0.2-0.1-0.4-0.1-0.7c0-0.4,0.1-0.9,0.4-1.2
		c0.3-0.3,0.7-0.5,1.2-0.6c0.4-0.1,0.7-0.1,0.9-0.2c0.2,0,0.3-0.1,0.5-0.2c0.1,0,0.2-0.1,0.2-0.2c0-0.1,0-0.2,0-0.3
		c0-0.2,0-0.4-0.1-0.6c0-0.2-0.1-0.4-0.2-0.5c-0.1-0.1-0.2-0.3-0.4-0.4c-0.2-0.1-0.4-0.1-0.6-0.1c-0.3,0-0.6,0.1-0.8,0.2
		c-0.2,0.2-0.4,0.4-0.6,0.6h-0.1v-0.7C-1468.9,1889.9-1468.6,1889.7-1468.3,1889.5 M-1466.9,1892.6c-0.2,0-0.3,0.1-0.5,0.1
		c-0.2,0-0.3,0.1-0.5,0.1c-0.2,0.1-0.3,0.1-0.4,0.2c-0.1,0.1-0.2,0.2-0.3,0.4c-0.1,0.2-0.1,0.4-0.1,0.6c0,0.3,0.1,0.7,0.3,0.9
		c0.2,0.2,0.4,0.3,0.7,0.3c0.3,0,0.6-0.1,0.8-0.3s0.4-0.4,0.5-0.6l0.1-2C-1466.6,1892.5-1466.7,1892.5-1466.9,1892.6"/>
	<path id="Trazado_259_1_" class="st2" d="M-1463.8,1891.1c0.1-0.4,0.4-0.7,0.7-1c0.2-0.3,0.6-0.5,0.9-0.6c0.3-0.1,0.7-0.2,1.1-0.2
		c0.4,0,0.8,0.1,1.1,0.2c0.3,0.1,0.5,0.2,0.7,0.4c-0.1,0.1-0.1,0.3-0.1,0.4c0,0.1-0.1,0.3-0.1,0.4h-0.1c-0.1-0.1-0.1-0.2-0.2-0.3
		c-0.1-0.1-0.2-0.2-0.3-0.3c-0.1-0.1-0.3-0.2-0.4-0.3c-0.2-0.1-0.3-0.1-0.5-0.1c-0.3,0-0.6,0.1-0.9,0.2c-0.2,0.1-0.4,0.4-0.6,0.6
		c-0.2,0.3-0.3,0.6-0.3,0.9c-0.1,0.4-0.1,0.7-0.1,1.1c-0.1,0.7,0.1,1.4,0.5,2c0.3,0.5,0.9,0.7,1.4,0.7c0.2,0,0.3,0,0.5-0.1
		c0.2-0.1,0.3-0.1,0.5-0.2c0.2-0.1,0.3-0.2,0.4-0.3s0.2-0.2,0.3-0.4l0.1,0c0,0.2-0.1,0.4-0.1,0.6c-0.2,0.2-0.5,0.4-0.8,0.5
		c-0.3,0.1-0.7,0.2-1,0.2c-0.3,0-0.7-0.1-1-0.2c-0.3-0.1-0.6-0.3-0.9-0.6c-0.3-0.3-0.5-0.6-0.6-1c-0.2-0.5-0.2-1-0.2-1.5
		C-1464.1,1892.1-1464,1891.6-1463.8,1891.1"/>
	<path id="Trazado_260_1_" class="st2" d="M-1457.8,1886.7c0.1-0.1,0.2-0.2,0.4-0.2s0.3,0.1,0.4,0.2c0.1,0.1,0.2,0.3,0.2,0.5
		c0,0.2-0.1,0.3-0.2,0.5c-0.1,0.1-0.2,0.2-0.4,0.2c-0.2,0-0.3-0.1-0.4-0.2c-0.1-0.1-0.2-0.3-0.2-0.5S-1457.9,1886.9-1457.8,1886.7
		 M-1457.8,1890.7c0-0.4,0-0.8-0.1-1.2c0.2,0,0.3,0.1,0.5,0.1c0.2,0,0.3,0,0.5-0.1c0,0.4-0.1,0.8-0.1,1.2c0,0.4,0,0.8,0,1.2v1.4
		c0,0.4,0,0.8,0,1.2s0,0.8,0.1,1.2c-0.2,0-0.3,0-0.5,0s-0.3,0-0.5,0c0-0.3,0.1-0.7,0.1-1.2c0-0.4,0-0.9,0-1.2v-1.4
		C-1457.8,1891.5-1457.8,1891.1-1457.8,1890.7"/>
	<path id="Trazado_261_1_" class="st2" d="M-1455.2,1891.1c0.1-0.4,0.4-0.7,0.6-1c0.2-0.2,0.6-0.4,0.9-0.6c0.3-0.1,0.6-0.2,1-0.2
		s0.7,0.1,1,0.2c0.3,0.1,0.6,0.3,0.9,0.6c0.3,0.3,0.5,0.6,0.6,1c0.2,0.5,0.3,1,0.2,1.5c0,0.5-0.1,1-0.2,1.5c-0.1,0.4-0.3,0.7-0.6,1
		c-0.2,0.2-0.5,0.4-0.9,0.5c-0.3,0.1-0.6,0.2-1,0.2c-0.3,0-0.7-0.1-1-0.2c-0.3-0.1-0.6-0.3-0.9-0.5c-0.3-0.3-0.5-0.6-0.6-1
		c-0.2-0.5-0.3-1-0.2-1.5C-1455.4,1892.1-1455.4,1891.6-1455.2,1891.1 M-1454.4,1893.7c0.1,0.3,0.2,0.6,0.3,0.9
		c0.1,0.2,0.3,0.5,0.5,0.6c0.2,0.2,0.5,0.2,0.8,0.2c0.3,0,0.6-0.1,0.8-0.2c0.2-0.2,0.4-0.4,0.5-0.6c0.2-0.3,0.2-0.6,0.3-0.9
		c0.1-0.4,0.1-0.7,0.1-1.1c0-0.4,0-0.7-0.1-1.1c-0.1-0.3-0.2-0.6-0.3-0.9c-0.1-0.3-0.3-0.5-0.5-0.6c-0.2-0.2-0.5-0.2-0.8-0.2
		c-0.3,0-0.6,0.1-0.8,0.2c-0.2,0.2-0.4,0.4-0.5,0.6c-0.1,0.3-0.2,0.6-0.3,0.9c-0.1,0.4-0.1,0.7-0.1,1.1
		C-1454.4,1893-1454.4,1893.3-1454.4,1893.7 M-1451.3,1886.1c0.1,0,0.2,0.1,0.2,0.1c0.1,0.1,0.1,0.2,0.1,0.3c0,0.1,0,0.3-0.1,0.4
		c-0.1,0.1-0.2,0.2-0.3,0.2l-1.7,1.2h-0.5l1.7-1.9C-1451.7,1886.2-1451.5,1886.1-1451.3,1886.1"/>
	<path id="Trazado_262_1_" class="st2" d="M-1445.4,1890.5c-0.2-0.3-0.5-0.5-0.9-0.5c-0.5,0-0.9,0.2-1.2,0.6c-0.3,0.5-0.4,1-0.4,1.6
		v1.1c0,0.4,0,0.8,0,1.2s0,0.8,0.1,1.2c-0.2,0-0.3,0-0.5,0s-0.3,0-0.5,0c0-0.3,0.1-0.7,0.1-1.2s0-0.8,0-1.2v-1.4c0-0.4,0-0.8,0-1.2
		s0-0.8-0.1-1.2c0.2,0,0.3,0.1,0.5,0.1c0.1,0,0.1,0,0.2,0c0.1,0,0.2,0,0.3-0.1c0,0.3,0,0.7,0,1.1h0c0.2-0.3,0.4-0.6,0.8-0.9
		c0.3-0.2,0.7-0.3,1.1-0.3c0.2,0,0.4,0,0.6,0.1c0.2,0.1,0.4,0.2,0.6,0.4c0.2,0.2,0.3,0.4,0.4,0.7c0.1,0.4,0.2,0.7,0.2,1.1
		c0,0.4,0,0.8,0,1.2s0,0.8,0,1.3v0.9c0,0.1,0,0.3,0,0.4s0,0.3,0,0.4c-0.2,0-0.3,0-0.5,0c-0.2,0-0.3,0-0.5,0c0-0.4,0-0.9,0.1-1.4
		s0-1,0-1.5v-0.8C-1445,1891.5-1445.1,1891-1445.4,1890.5"/>
	<path id="Trazado_263_1_" class="st2" d="M-1499.2,1905.7c-0.2,0.1-0.3,0.1-0.5,0.2c-0.2,0.1-0.4,0.1-0.6,0.1
		c-0.2,0-0.5,0.1-0.7,0.1c-0.5,0-1-0.1-1.5-0.2c-0.4-0.1-0.8-0.4-1.2-0.7c-0.3-0.3-0.6-0.7-0.8-1.2c-0.2-0.5-0.3-1-0.3-1.6
		c0-0.5,0.1-1.1,0.3-1.6c0.2-0.4,0.4-0.9,0.8-1.2c0.3-0.3,0.8-0.6,1.2-0.7c0.5-0.2,1-0.3,1.5-0.2c0.4,0,0.8,0,1.2,0.1
		c0.3,0.1,0.7,0.2,1,0.3c-0.1,0.1-0.1,0.3-0.1,0.4s-0.1,0.3-0.1,0.4l-0.1,0c-0.1-0.1-0.2-0.2-0.3-0.3c-0.1-0.1-0.3-0.2-0.4-0.3
		c-0.2-0.1-0.3-0.2-0.6-0.2c-0.2-0.1-0.4-0.1-0.7-0.1c-0.4,0-0.7,0.1-1.1,0.2c-0.3,0.1-0.6,0.4-0.9,0.6c-0.3,0.3-0.5,0.6-0.6,1
		c-0.1,0.5-0.2,1-0.2,1.5c0,0.5,0.1,1,0.2,1.5c0.1,0.4,0.3,0.7,0.6,1c0.2,0.3,0.5,0.5,0.9,0.6c0.3,0.1,0.7,0.2,1.1,0.2
		c0.2,0,0.4,0,0.7-0.1c0.2-0.1,0.4-0.1,0.6-0.2c0.2-0.1,0.3-0.2,0.4-0.3c0.1-0.1,0.3-0.2,0.3-0.3l0,0l-0.1,0.6
		C-1499,1905.6-1499.1,1905.6-1499.2,1905.7"/>
	<path id="Trazado_264_1_" class="st2" d="M-1494.2,1903.2c-0.9-1-1.7-1.9-2.6-2.9c0,0.2,0,0.5,0,0.8s0,0.8,0,1.3v0.5
		c0,0.2,0,0.4,0,0.7c0,0.2,0,0.5,0,0.7c0,0.2,0,0.5,0,0.7s0,0.4,0,0.6c0,0.1,0,0.3,0,0.3c-0.1,0-0.2,0-0.3,0c-0.1,0-0.3,0-0.4,0
		c0-0.1,0-0.3,0.1-0.4c0-0.2,0-0.4,0-0.7s0-0.6,0-0.9s0-0.6,0.1-0.9s0-0.6,0-0.9c0-0.3,0-0.5,0-0.8c0-0.7,0-1.2,0-1.7s0-0.8,0-1.1
		h0.2c0.4,0.5,0.8,0.9,1.3,1.5c0.5,0.5,0.9,1.1,1.4,1.6c0.5,0.5,0.9,1,1.3,1.4s0.8,0.9,1.1,1.2v-1.4c0-0.7,0-1.4,0-2.1s0-1.4-0.1-2
		c0.1,0,0.2,0.1,0.3,0.1c0.1,0,0.2,0,0.3-0.1c0,0.1,0,0.4-0.1,0.7c0,0.3,0,0.6-0.1,1s0,0.7-0.1,1c0,0.3,0,0.6,0,0.8v1.4
		c0,0.2,0,0.5,0,0.8c0,0.3,0,0.5,0,0.7s0,0.4,0,0.6v0.4h-0.1C-1492.5,1905.1-1493.4,1904.2-1494.2,1903.2"/>
	<path id="Trazado_265_1_" class="st2" d="M-1484.3,1905.9c-0.1,0-0.2,0-0.3,0h-0.5c-0.1,0-0.2,0-0.3,0c-0.1-0.2-0.1-0.4-0.2-0.6
		s-0.2-0.5-0.3-0.7c-0.1-0.2-0.2-0.5-0.3-0.8c-0.1-0.3-0.2-0.5-0.3-0.7c-0.2,0-0.4,0-0.7,0s-0.4,0-0.7,0c-0.2,0-0.4,0-0.6,0
		s-0.4,0-0.6,0c-0.2,0.5-0.4,1.1-0.6,1.6c-0.2,0.5-0.3,0.9-0.4,1.2c-0.1,0-0.2,0-0.4,0s-0.2,0-0.4,0c0.5-1.2,1.1-2.4,1.6-3.6
		c0.5-1.2,1-2.4,1.6-3.7h0.2c0.2,0.4,0.3,0.8,0.5,1.3c0.2,0.5,0.4,0.9,0.6,1.4c0.2,0.5,0.4,0.9,0.6,1.4c0.2,0.5,0.4,0.9,0.6,1.3
		s0.3,0.8,0.5,1.1S-1484.3,1905.7-1484.3,1905.9 M-1488.7,1902.7c0.2,0,0.3,0,0.5,0c0.2,0,0.4,0,0.5,0h0.6c0.2,0,0.4,0,0.6,0
		l-1.1-2.7L-1488.7,1902.7z"/>
	<rect id="Rectángulo_25_1_" x="-1483.7" y="1903.1" class="st2" width="2.5" height="0.7"/>
	<path id="Trazado_266_1_" class="st2" d="M-1474.9,1905.7c-0.2,0.1-0.3,0.1-0.5,0.2c-0.2,0.1-0.4,0.1-0.6,0.1
		c-0.2,0-0.5,0.1-0.7,0.1c-0.5,0-1-0.1-1.5-0.2c-0.4-0.1-0.8-0.4-1.2-0.7c-0.3-0.3-0.6-0.7-0.8-1.2c-0.2-0.5-0.3-1-0.3-1.6
		c0-0.5,0.1-1.1,0.3-1.6c0.2-0.4,0.4-0.9,0.8-1.2c0.3-0.3,0.8-0.6,1.2-0.7c0.5-0.2,1-0.3,1.5-0.2c0.4,0,0.8,0,1.2,0.1
		c0.3,0.1,0.7,0.2,1,0.3c-0.1,0.1-0.1,0.3-0.1,0.4c0,0.1-0.1,0.3-0.1,0.4l-0.1,0c-0.1-0.1-0.2-0.2-0.3-0.3c-0.1-0.1-0.3-0.2-0.4-0.3
		c-0.2-0.1-0.4-0.2-0.6-0.2c-0.2-0.1-0.4-0.1-0.7-0.1c-0.4,0-0.7,0.1-1.1,0.2c-0.3,0.1-0.6,0.4-0.9,0.6c-0.3,0.3-0.5,0.6-0.6,1
		c-0.1,0.5-0.2,1-0.2,1.5c0,0.5,0.1,1,0.2,1.5c0.1,0.4,0.3,0.7,0.6,1c0.2,0.3,0.6,0.5,0.9,0.6c0.3,0.1,0.7,0.2,1.1,0.2
		c0.2,0,0.4,0,0.7-0.1c0.2-0.1,0.4-0.1,0.6-0.2c0.2-0.1,0.3-0.2,0.4-0.3c0.1-0.1,0.3-0.2,0.3-0.3l0,0l-0.1,0.6
		C-1474.7,1905.6-1474.8,1905.6-1474.9,1905.7"/>
	<path id="Trazado_267_1_" class="st2" d="M-1473.2,1900.3c0-0.3,0-0.6,0-0.8s0-0.5,0-0.8c0-0.2,0-0.5,0-0.6c0.2,0,0.3,0.1,0.4,0.1
		c0.2,0,0.3,0,0.5-0.1c0,0.2,0,0.4,0,0.6s0,0.5,0,0.8s0,0.5,0,0.8s0,0.5,0,0.8v0.8h0c0.2-0.3,0.4-0.5,0.7-0.7
		c0.3-0.2,0.6-0.3,0.9-0.2c0.2,0,0.4,0,0.6,0.1c0.2,0.1,0.4,0.2,0.5,0.3c0.2,0.2,0.3,0.4,0.4,0.6c0.1,0.3,0.2,0.6,0.1,0.9
		c0,0.3,0,0.6,0,0.9s0,0.6,0,1v0.7c0,0.1,0,0.2,0,0.3s0,0.2,0,0.3c-0.1,0-0.3,0-0.4,0s-0.3,0-0.4,0c0-0.4,0-0.7,0-1.1s0-0.8,0-1.2
		v-0.6c0-0.4-0.1-0.8-0.3-1.2c-0.2-0.3-0.5-0.4-0.8-0.4c-0.4,0-0.8,0.1-1,0.4c-0.2,0.4-0.3,0.8-0.3,1.3c0,0.2,0,0.4,0,0.7
		c0,0.3,0,0.5,0,0.8s0,0.5,0,0.8c0,0.2,0,0.4,0,0.6c-0.2,0-0.3,0-0.5,0s-0.3,0-0.4,0c0-0.2,0-0.4,0-0.6c0-0.2,0-0.5,0-0.8
		c0-0.3,0-0.6,0-0.8c0-0.3,0-0.5,0-0.8v-1.9C-1473.2,1900.8-1473.2,1900.6-1473.2,1900.3"/>
	<path id="Trazado_268_1_" class="st2" d="M-1467.4,1898.7c0.1-0.1,0.2-0.2,0.4-0.1c0.1,0,0.3,0.1,0.4,0.1c0.1,0.1,0.2,0.2,0.1,0.4
		c0,0.1-0.1,0.3-0.1,0.4c-0.1,0.1-0.2,0.2-0.4,0.1c-0.1,0-0.3-0.1-0.4-0.1c-0.1-0.1-0.2-0.2-0.2-0.4
		C-1467.6,1899-1467.5,1898.8-1467.4,1898.7 M-1467.5,1901.9c0-0.4,0-0.7-0.1-1c0.2,0,0.3,0.1,0.5,0.1c0.2,0,0.3,0,0.4-0.1
		c0,0.3-0.1,0.6-0.1,1c0,0.4,0,0.7,0,1v1.1c0,0.3,0,0.6,0,1s0,0.6,0.1,0.9c-0.2,0-0.3,0-0.4,0s-0.3,0-0.5,0c0-0.3,0.1-0.6,0.1-0.9
		c0-0.4,0-0.7,0-1v-1.1C-1467.4,1902.6-1467.5,1902.3-1467.5,1901.9"/>
	<path id="Trazado_269_1_" class="st2" d="M-1464.7,1900.3c0-0.3,0-0.6,0-0.8s0-0.5,0-0.8s0-0.5,0-0.6c0.2,0,0.3,0.1,0.4,0.1
		c0.2,0,0.3,0,0.5-0.1c0,0.2,0,0.4,0,0.6s0,0.5,0,0.8c0,0.3,0,0.6,0,0.8c0,0.3,0,0.5,0,0.8v1.9c0,0.2,0,0.5,0,0.8s0,0.6,0,0.8
		s0,0.5,0,0.8c0,0.2,0,0.4,0,0.6c-0.2,0-0.3,0-0.5,0s-0.3,0-0.4,0c0-0.2,0-0.4,0-0.6c0-0.2,0-0.5,0-0.8s0-0.6,0-0.8V1900.3z"/>
	<path id="Trazado_270_1_" class="st2" d="M-1462,1901.6c0.4-0.5,1.1-0.8,1.7-0.7c0.3,0,0.6,0.1,0.9,0.2c0.2,0.1,0.5,0.3,0.7,0.5
		c0.2,0.2,0.3,0.4,0.4,0.7c0.1,0.3,0.1,0.6,0.1,0.8v0.2c0,0.1,0,0.1,0,0.2c-0.4,0-0.7,0-1.1,0s-0.7,0-1.1,0c-0.2,0-0.4,0-0.7,0
		s-0.4,0-0.7,0c0,0.1,0,0.1,0,0.2v0.1c0,0.3,0,0.5,0.1,0.8c0.1,0.2,0.2,0.4,0.3,0.6c0.2,0.2,0.3,0.3,0.6,0.4
		c0.2,0.1,0.5,0.2,0.7,0.1c0.1,0,0.3,0,0.4-0.1c0.2,0,0.3-0.1,0.4-0.1c0.1-0.1,0.2-0.1,0.4-0.2s0.2-0.2,0.3-0.3l0.1,0l-0.1,0.5
		c-0.2,0.2-0.5,0.3-0.8,0.4c-0.3,0.1-0.6,0.2-0.9,0.2c-0.3,0-0.7-0.1-1-0.2c-0.3-0.1-0.6-0.3-0.8-0.5c-0.2-0.2-0.4-0.5-0.5-0.8
		c-0.1-0.3-0.2-0.6-0.2-1C-1462.6,1902.9-1462.4,1902.2-1462,1901.6 M-1460.9,1901.3c-0.2,0.1-0.3,0.3-0.4,0.4s-0.2,0.4-0.2,0.6
		c-0.1,0.2-0.1,0.4-0.1,0.6c0.2,0,0.4,0,0.7,0s0.4,0,0.7,0s0.4,0,0.7,0s0.4,0,0.7,0c0-0.2,0-0.4-0.1-0.6c0-0.2-0.1-0.4-0.2-0.6
		c-0.1-0.2-0.2-0.3-0.4-0.4c-0.2-0.1-0.4-0.2-0.6-0.2C-1460.4,1901.2-1460.7,1901.2-1460.9,1901.3"/>
	<path id="Trazado_271_1_" class="st3" d="M-1476.7,1837.5l10,22.1l-6.9,5l-8.6-19.1l-11,25.3l-0.4,0.4l-0.9,0.3h-7.8l-0.2-0.1
		l14.9-34.2l0.4-0.4h10.1l0.2,0.2L-1476.7,1837.5z"/>
	<path id="Trazado_272_1_" class="st3" d="M-1473.6,1864.9l-8.8,7l11.7,0L-1473.6,1864.9z"/>
	<path id="Trazado_273_1_" class="st3" d="M-1466.6,1859.8l17.6-14.3l-11.5,26.3h-0.6l-0.3-0.3L-1466.6,1859.8z"/>
</g>
<line id="Línea_5_1_" class="st1" x1="21.3" y1="108.7" x2="176.3" y2="108.7"/>
<g id="Grupo_31_1_" transform="translate(1589.463 -1791.658)">
	<g id="Grupo_29_1_">
		<g id="Grupo_28_1_">
			<path id="Trazado_274_1_" class="st2" d="M-1546.2,1932.3c0,5.7-4.7,9.4-10.6,9.4c-7.9,0-12.5-5.1-12.5-14.4
				c0-9.9,5.8-15.4,14.2-15.4c2.7-0.1,5.3,0.6,7.6,1.9l-2,4.1c-1.7-1-3.6-1.5-5.5-1.4c-5.4,0-8.9,3.4-8.9,10v0c1.7-2,4.5-3,7.7-3
				C-1550.5,1923.4-1546.2,1926.9-1546.2,1932.3z M-1551.4,1932.5c0-3-2.3-4.9-5.8-4.9c-3.5,0-5.9,2.1-5.9,5c0,2.7,2.2,4.9,6,4.9
				C-1553.8,1937.5-1551.4,1935.6-1551.4,1932.5z"/>
		</g>
	</g>
	<g class="st4">
		<path class="st2" d="M-1529,1918v-6.1h2.5v6c0,2.1,0.9,2.9,2.4,2.9c1.6,0,2.4-0.9,2.4-2.9v-6h2.5v6.1c0,3.2-1.8,5-4.9,5
			C-1527.1,1923-1529,1921.2-1529,1918z"/>
		<path class="st2" d="M-1506.6,1911.9v10.9h-2.1l-5.4-6.6v6.6h-2.5v-10.9h2.1l5.4,6.6v-6.6H-1506.6z"/>
		<path class="st2" d="M-1504,1911.9h2.5v10.9h-2.5V1911.9z"/>
		<path class="st2" d="M-1488.4,1911.9l-4.7,10.9h-2.5l-4.7-10.9h2.7l3.3,7.8l3.4-7.8H-1488.4z"/>
		<path class="st2" d="M-1479,1920.8v2h-8.5v-10.9h8.3v2h-5.7v2.4h5.1v2h-5.1v2.5L-1479,1920.8L-1479,1920.8z"/>
		<path class="st2" d="M-1470.1,1922.8l-2.1-3h-0.1h-2.2v3h-2.5v-10.9h4.7c2.9,0,4.8,1.5,4.8,4c0,1.6-0.8,2.8-2.2,3.4l2.4,3.5
			L-1470.1,1922.8L-1470.1,1922.8z M-1472.4,1914h-2.1v3.8h2.1c1.5,0,2.3-0.7,2.3-1.9C-1470.1,1914.7-1470.9,1914-1472.4,1914z"/>
		<path class="st2" d="M-1466.4,1921.7l0.9-1.9c0.9,0.7,2.3,1.1,3.6,1.1c1.5,0,2.1-0.5,2.1-1.2c0-2-6.3-0.6-6.3-4.7
			c0-1.9,1.5-3.4,4.6-3.4c1.4,0,2.8,0.3,3.8,1l-0.8,1.9c-1-0.6-2.1-0.9-3-0.9c-1.5,0-2.1,0.6-2.1,1.2c0,2,6.3,0.6,6.3,4.6
			c0,1.8-1.5,3.4-4.6,3.4C-1463.7,1923-1465.4,1922.5-1466.4,1921.7z"/>
		<path class="st2" d="M-1455.6,1911.9h2.5v10.9h-2.5V1911.9z"/>
		<path class="st2" d="M-1450.5,1911.9h5c3.6,0,6,2.1,6,5.5s-2.4,5.5-6,5.5h-5V1911.9z M-1445.6,1920.7c2.2,0,3.6-1.3,3.6-3.4
			c0-2.1-1.4-3.4-3.6-3.4h-2.3v6.8L-1445.6,1920.7L-1445.6,1920.7z"/>
		<path class="st2" d="M-1430.6,1920.5h-5.1l-1,2.3h-2.6l4.9-10.9h2.5l4.9,10.9h-2.7L-1430.6,1920.5z M-1431.3,1918.6l-1.7-4.2
			l-1.7,4.2H-1431.3z"/>
		<path class="st2" d="M-1425.8,1911.9h5c3.6,0,6,2.1,6,5.5s-2.4,5.5-6,5.5h-5V1911.9z M-1421,1920.7c2.2,0,3.6-1.3,3.6-3.4
			c0-2.1-1.4-3.4-3.6-3.4h-2.3v6.8L-1421,1920.7L-1421,1920.7z"/>
	</g>
	<g class="st4">
		<path class="st2" d="M-1521.2,1939.1h-5.4l-1,2.5h-2.8l5.2-11.6h2.7l5.2,11.6h-2.8L-1521.2,1939.1z M-1522.1,1937l-1.8-4.5
			l-1.8,4.5H-1522.1z"/>
		<path class="st2" d="M-1517,1935.7c0-3.5,2.7-6,6.3-6c2,0,3.7,0.7,4.8,2.1l-1.7,1.6c-0.8-0.9-1.8-1.4-2.9-1.4
			c-2.2,0-3.7,1.5-3.7,3.7s1.6,3.7,3.7,3.7c1.2,0,2.2-0.5,2.9-1.4l1.7,1.6c-1.1,1.4-2.8,2.1-4.8,2.1
			C-1514.3,1941.8-1517,1939.2-1517,1935.7z"/>
		<path class="st2" d="M-1496.7,1941.6l-2.2-3.2h-0.1h-2.3v3.2h-2.7v-11.6h5c3.1,0,5.1,1.6,5.1,4.2c0,1.8-0.9,3-2.4,3.7l2.6,3.8
			L-1496.7,1941.6L-1496.7,1941.6z M-1499.2,1932.1h-2.2v4.1h2.2c1.7,0,2.5-0.8,2.5-2C-1496.7,1932.8-1497.6,1932.1-1499.2,1932.1z"
			/>
		<path class="st2" d="M-1482.9,1939.4v2.2h-9v-11.6h8.8v2.2h-6.1v2.5h5.4v2.1h-5.4v2.7H-1482.9z"/>
		<path class="st2" d="M-1480.7,1929.9h5.3c3.8,0,6.4,2.3,6.4,5.8s-2.6,5.8-6.4,5.8h-5.3V1929.9z M-1475.5,1939.3
			c2.3,0,3.8-1.4,3.8-3.6c0-2.2-1.5-3.6-3.8-3.6h-2.5v7.2L-1475.5,1939.3L-1475.5,1939.3z"/>
		<path class="st2" d="M-1467,1929.9h2.7v11.6h-2.7V1929.9z"/>
		<path class="st2" d="M-1459.1,1932.1h-3.7v-2.2h10.2v2.2h-3.7v9.5h-2.7L-1459.1,1932.1L-1459.1,1932.1z"/>
		<path class="st2" d="M-1444.1,1939.1h-5.4l-1,2.5h-2.8l5.2-11.6h2.7l5.2,11.6h-2.8L-1444.1,1939.1z M-1445,1937l-1.8-4.5l-1.8,4.5
			H-1445z"/>
		<path class="st2" d="M-1439,1929.9h5.3c3.8,0,6.4,2.3,6.4,5.8s-2.6,5.8-6.4,5.8h-5.3V1929.9z M-1433.9,1939.3
			c2.3,0,3.8-1.4,3.8-3.6c0-2.2-1.5-3.6-3.8-3.6h-2.5v7.2L-1433.9,1939.3L-1433.9,1939.3z"/>
		<path class="st2" d="M-1417.8,1939.1h-5.4l-1,2.5h-2.8l5.2-11.6h2.7l5.2,11.6h-2.8L-1417.8,1939.1z M-1418.6,1937l-1.8-4.5
			l-1.8,4.5H-1418.6z"/>
	</g>
	<g id="Grupo_30_1_">
		<path id="Trazado_275_1_" class="st2" d="M-1537.9,1935.5h3.9v1.5h-0.8c0.6,0.5,1,1.3,0.9,2.1c0,1.5-0.8,2.5-2,2.5
			c-1.1,0-2-0.7-2-2.8v-1.7h-0.1c-0.9,0-1.4,0.6-1.4,1.6c0,0.7,0.2,1.4,0.7,2l-1.1,0.6c-0.6-0.8-0.8-1.8-0.8-2.8
			C-1540.8,1936.6-1539.9,1935.5-1537.9,1935.5z M-1536.1,1937.1h-0.8v1.6c0,1.1,0.4,1.3,0.9,1.3c0.6,0,0.9-0.5,0.9-1.3
			C-1535.1,1938-1535.5,1937.4-1536.1,1937.1z"/>
		<path id="Trazado_276_1_" class="st2" d="M-1537.9,1927h3.8v1.6h-3.6c-1.2,0-1.8,0.6-1.8,1.6c-0.1,1,0.7,1.8,1.7,1.9
			c0.1,0,0.2,0,0.3,0h3.3v1.6h-6.6v-1.5h0.9c-0.6-0.6-1-1.4-0.9-2.3c-0.1-1.4,1-2.7,2.4-2.8C-1538.2,1927-1538,1927-1537.9,1927z
			 M-1541.7,1931.7v0.8c-1,0-1.7-0.6-1.7-1.3c0-0.8,0.8-1.2,0.8-1.7c0-0.4-0.3-0.6-0.7-0.6v-0.8c1,0,1.6,0.6,1.6,1.3
			c0,0.8-0.8,1.2-0.8,1.7C-1542.4,1931.4-1542.1,1931.7-1541.7,1931.7L-1541.7,1931.7z"/>
		<path id="Trazado_277_1_" class="st2" d="M-1537.4,1925.5c-1.8,0-3.4-1.4-3.4-3.3c0-0.1,0-0.2,0-0.2c-0.1-1.8,1.3-3.4,3.1-3.5
			c0.1,0,0.2,0,0.3,0c1.8,0,3.4,1.4,3.4,3.3c0,0.1,0,0.2,0,0.3c0.1,1.9-1.3,3.4-3.2,3.5C-1537.2,1925.5-1537.3,1925.5-1537.4,1925.5
			z M-1537.4,1920c-1.1-0.1-2,0.7-2.1,1.8c0,0.1,0,0.1,0,0.2c0,1.1,0.8,1.9,1.9,2c0.1,0,0.1,0,0.2,0c1.1,0.1,2-0.7,2.1-1.8
			c0-0.1,0-0.1,0-0.2c0-1.1-0.8-1.9-1.9-2C-1537.2,1920-1537.3,1920-1537.4,1920z"/>
		<path id="Trazado_278_1_" class="st2" d="M-1534.7,1917.7l-1.2-0.6c0.4-0.7,0.7-1.5,0.7-2.3c0-1-0.3-1.4-0.7-1.4
			c-1.3,0-0.1,4.1-2.7,4.1c-1.2,0-2.1-1.1-2.1-2.9c0-0.9,0.2-1.7,0.6-2.5l1.2,0.6c-0.3,0.6-0.5,1.2-0.5,1.9c0,0.9,0.3,1.4,0.7,1.4
			c1.3,0,0.2-4.1,2.7-4.1c1.2,0,2.1,1.1,2.1,3C-1534,1915.9-1534.2,1916.9-1534.7,1917.7z"/>
	</g>
</g>
<g class="st4">
	<path class="st2" d="M29.6,169.5h0.9v3.2c-0.8,0.7-1.9,1.1-3.1,1.1c-2.5,0-4.4-1.8-4.4-4.3s1.9-4.3,4.4-4.3c1.3,0,2.4,0.4,3.1,1.2
		l-0.5,0.6c-0.7-0.7-1.5-1-2.5-1c-2.1,0-3.6,1.5-3.6,3.5c0,2,1.5,3.5,3.6,3.5c0.8,0,1.5-0.2,2.2-0.6L29.6,169.5L29.6,169.5z"/>
	<path class="st2" d="M38.2,170.8H33c0.1,1.3,1.1,2.2,2.5,2.2c0.8,0,1.5-0.3,1.9-0.8l0.5,0.5c-0.6,0.7-1.4,1-2.4,1
		c-2,0-3.3-1.3-3.3-3.2s1.3-3.2,3.1-3.2c1.8,0,3.1,1.3,3.1,3.2C38.3,170.6,38.2,170.7,38.2,170.8z M33,170.1h4.5
		c-0.1-1.2-1-2.1-2.2-2.1C34,168,33.1,168.9,33,170.1z"/>
	<path class="st2" d="M39.1,172.9l0.4-0.7c0.5,0.4,1.4,0.7,2.2,0.7c1.2,0,1.7-0.4,1.7-1c0-1.6-4.1-0.4-4.1-2.8c0-1,0.9-1.8,2.5-1.8
		c0.8,0,1.7,0.2,2.2,0.6l-0.4,0.7c-0.5-0.4-1.2-0.5-1.9-0.5c-1.1,0-1.6,0.4-1.6,1c0,1.7,4.1,0.4,4.1,2.8c0,1.1-1,1.8-2.6,1.8
		C40.6,173.7,39.6,173.4,39.1,172.9z"/>
	<path class="st2" d="M49.2,173.3c-0.3,0.3-0.8,0.4-1.3,0.4c-1.2,0-1.9-0.7-1.9-1.8v-3.8h-1.1v-0.7H46V166h0.9v1.4h1.9v0.7h-1.9v3.8
		c0,0.7,0.4,1.1,1.1,1.1c0.4,0,0.7-0.1,0.9-0.3L49.2,173.3z"/>
	<path class="st2" d="M50.5,165.4c0-0.3,0.3-0.6,0.6-0.6s0.6,0.3,0.6,0.6c0,0.4-0.3,0.6-0.6,0.6C50.8,166,50.5,165.7,50.5,165.4z
		 M50.7,167.4h0.9v6.3h-0.9V167.4z"/>
	<path class="st2" d="M53.3,170.5c0-1.9,1.4-3.2,3.2-3.2c1.9,0,3.2,1.3,3.2,3.2s-1.4,3.2-3.2,3.2C54.7,173.7,53.3,172.4,53.3,170.5z
		 M58.9,170.5c0-1.5-1-2.5-2.3-2.5s-2.4,1-2.4,2.5s1,2.5,2.4,2.5S58.9,172,58.9,170.5z M57.4,164.9h1.1l-1.9,1.5h-0.8L57.4,164.9z"
		/>
	<path class="st2" d="M67.3,170v3.7h-0.9v-3.6c0-1.3-0.7-2-1.9-2c-1.4,0-2.2,0.8-2.2,2.3v3.3h-0.9v-6.3h0.8v1.2
		c0.5-0.8,1.3-1.2,2.4-1.2C66.2,167.3,67.3,168.2,67.3,170z"/>
	<path class="st2" d="M72.9,165.3h0.9v8.4h-0.9V165.3z"/>
	<path class="st2" d="M82.2,170v3.7h-0.9v-3.6c0-1.3-0.7-2-1.9-2c-1.4,0-2.2,0.8-2.2,2.3v3.3h-0.9v-6.3h0.8v1.2
		c0.5-0.8,1.3-1.2,2.4-1.2C81.1,167.3,82.2,168.2,82.2,170z"/>
	<path class="st2" d="M83.6,172.9l0.4-0.7c0.5,0.4,1.4,0.7,2.2,0.7c1.2,0,1.7-0.4,1.7-1c0-1.6-4.1-0.4-4.1-2.8c0-1,0.9-1.8,2.5-1.8
		c0.8,0,1.7,0.2,2.2,0.6l-0.4,0.7c-0.5-0.4-1.2-0.5-1.9-0.5c-1.1,0-1.6,0.4-1.6,1c0,1.7,4.1,0.4,4.1,2.8c0,1.1-1,1.8-2.6,1.8
		C85.1,173.7,84.1,173.4,83.6,172.9z"/>
	<path class="st2" d="M93.7,173.3c-0.3,0.3-0.8,0.4-1.3,0.4c-1.2,0-1.9-0.7-1.9-1.8v-3.8h-1.1v-0.7h1.1V166h0.9v1.4h1.9v0.7h-1.9
		v3.8c0,0.7,0.4,1.1,1.1,1.1c0.4,0,0.7-0.1,0.9-0.3L93.7,173.3z"/>
	<path class="st2" d="M95,165.4c0-0.3,0.3-0.6,0.6-0.6s0.6,0.3,0.6,0.6c0,0.4-0.3,0.6-0.6,0.6C95.3,166,95,165.7,95,165.4z
		 M95.2,167.4h0.9v6.3h-0.9V167.4z"/>
	<path class="st2" d="M101.8,173.3c-0.3,0.3-0.8,0.4-1.3,0.4c-1.2,0-1.9-0.7-1.9-1.8v-3.8h-1.1v-0.7h1.1V166h0.9v1.4h1.9v0.7h-1.9
		v3.8c0,0.7,0.4,1.1,1.1,1.1c0.4,0,0.7-0.1,0.9-0.3L101.8,173.3z"/>
	<path class="st2" d="M109,167.4v6.3h-0.8v-1.1c-0.4,0.8-1.3,1.2-2.3,1.2c-1.6,0-2.7-0.9-2.7-2.7v-3.7h0.9v3.6c0,1.3,0.7,2,1.9,2
		c1.3,0,2.1-0.9,2.1-2.3v-3.3H109z"/>
	<path class="st2" d="M110.8,170.5c0-1.9,1.4-3.2,3.2-3.2c1.1,0,2,0.4,2.5,1.2l-0.6,0.4c-0.4-0.6-1.1-0.9-1.8-0.9
		c-1.4,0-2.4,1-2.4,2.5c0,1.5,1,2.5,2.4,2.5c0.7,0,1.4-0.3,1.8-0.9l0.6,0.4c-0.5,0.8-1.4,1.2-2.5,1.2
		C112.1,173.7,110.8,172.4,110.8,170.5z"/>
	<path class="st2" d="M118,165.4c0-0.3,0.3-0.6,0.6-0.6s0.6,0.3,0.6,0.6c0,0.4-0.3,0.6-0.6,0.6C118.3,166,118,165.7,118,165.4z
		 M118.2,167.4h0.9v6.3h-0.9V167.4z"/>
	<path class="st2" d="M120.8,170.5c0-1.9,1.4-3.2,3.2-3.2s3.2,1.3,3.2,3.2s-1.4,3.2-3.2,3.2S120.8,172.4,120.8,170.5z M126.3,170.5
		c0-1.5-1-2.5-2.3-2.5s-2.4,1-2.4,2.5s1,2.5,2.4,2.5C125.3,173,126.3,172,126.3,170.5z"/>
	<path class="st2" d="M134.7,170v3.7h-0.9v-3.6c0-1.3-0.7-2-1.9-2c-1.4,0-2.2,0.8-2.2,2.3v3.3h-0.9v-6.3h0.8v1.2
		c0.5-0.8,1.3-1.2,2.4-1.2C133.7,167.3,134.7,168.2,134.7,170z"/>
	<path class="st2" d="M141.8,169.8v3.9H141v-1c-0.4,0.6-1.1,1-2.2,1c-1.4,0-2.3-0.7-2.3-1.8c0-1,0.6-1.8,2.4-1.8h2v-0.4
		c0-1.1-0.6-1.7-1.8-1.7c-0.8,0-1.6,0.3-2.1,0.7l-0.4-0.6c0.6-0.5,1.6-0.9,2.6-0.9C140.9,167.3,141.8,168.1,141.8,169.8z M141,171.8
		v-1h-2c-1.2,0-1.6,0.5-1.6,1.1c0,0.7,0.6,1.2,1.6,1.2C139.9,173.1,140.6,172.6,141,171.8z"/>
	<path class="st2" d="M144.1,164.8h0.9v8.9h-0.9V164.8z"/>
</g>
<g class="st4">
	<path class="st2" d="M23.6,187.3h3.4c2.7,0,4.5,1.7,4.5,4.2s-1.8,4.2-4.5,4.2h-3.4V187.3z M27,194.9c2.2,0,3.7-1.4,3.7-3.4
		c0-2-1.4-3.4-3.7-3.4h-2.5v6.9H27z"/>
	<path class="st2" d="M32.7,192.5c0-1.9,1.4-3.2,3.2-3.2c1.9,0,3.2,1.3,3.2,3.2s-1.4,3.2-3.2,3.2C34.1,195.7,32.7,194.4,32.7,192.5z
		 M38.3,192.5c0-1.5-1-2.5-2.3-2.5s-2.4,1-2.4,2.5s1,2.5,2.4,2.5S38.3,194,38.3,192.5z"/>
	<path class="st2" d="M40.3,192.5c0-1.9,1.4-3.2,3.2-3.2c1.1,0,2,0.4,2.5,1.2l-0.6,0.4c-0.4-0.6-1.1-0.9-1.8-0.9
		c-1.4,0-2.4,1-2.4,2.5c0,1.5,1,2.5,2.4,2.5c0.7,0,1.4-0.3,1.8-0.9l0.6,0.4c-0.5,0.8-1.4,1.2-2.5,1.2
		C41.6,195.7,40.3,194.4,40.3,192.5z"/>
	<path class="st2" d="M53,192.8h-5.3c0.1,1.3,1.1,2.2,2.5,2.2c0.8,0,1.5-0.3,1.9-0.8l0.5,0.5c-0.6,0.7-1.4,1-2.4,1
		c-2,0-3.3-1.3-3.3-3.2s1.3-3.2,3.1-3.2c1.8,0,3.1,1.3,3.1,3.2C53.1,192.6,53,192.7,53,192.8z M47.8,192.1h4.5
		c-0.1-1.2-1-2.1-2.2-2.1C48.8,190,47.9,190.9,47.8,192.1z"/>
	<path class="st2" d="M60.6,192v3.7h-0.9v-3.6c0-1.3-0.7-2-1.9-2c-1.4,0-2.2,0.8-2.2,2.3v3.3h-0.9v-6.3h0.8v1.2
		c0.5-0.8,1.3-1.2,2.4-1.2C59.5,189.3,60.6,190.2,60.6,192z"/>
	<path class="st2" d="M62.3,192.5c0-1.9,1.4-3.2,3.2-3.2c1.1,0,2,0.4,2.5,1.2l-0.6,0.4c-0.4-0.6-1.1-0.9-1.8-0.9
		c-1.4,0-2.4,1-2.4,2.5c0,1.5,1,2.5,2.4,2.5c0.7,0,1.4-0.3,1.8-0.9l0.6,0.4c-0.5,0.8-1.4,1.2-2.5,1.2
		C63.7,195.7,62.3,194.4,62.3,192.5z"/>
	<path class="st2" d="M69.5,187.4c0-0.3,0.3-0.6,0.6-0.6s0.6,0.3,0.6,0.6c0,0.4-0.3,0.6-0.6,0.6C69.8,188,69.5,187.7,69.5,187.4z
		 M69.7,189.4h0.9v6.3h-0.9V189.4z"/>
	<path class="st2" d="M77.7,191.8v3.9h-0.8v-1c-0.4,0.6-1.1,1-2.2,1c-1.4,0-2.3-0.7-2.3-1.8c0-1,0.6-1.8,2.4-1.8h2v-0.4
		c0-1.1-0.6-1.7-1.8-1.7c-0.8,0-1.6,0.3-2.1,0.7l-0.4-0.6c0.6-0.5,1.6-0.9,2.6-0.9C76.8,189.3,77.7,190.1,77.7,191.8z M76.8,193.8
		v-1h-2c-1.2,0-1.6,0.5-1.6,1.1c0,0.7,0.6,1.2,1.6,1.2C75.8,195.1,76.5,194.6,76.8,193.8z"/>
	<path class="st2" d="M89.9,190.2c0,1.8-1.3,2.9-3.4,2.9h-2.2v2.6h-0.9v-8.4h3.1C88.6,187.3,89.9,188.4,89.9,190.2z M89,190.2
		c0-1.3-0.9-2.1-2.6-2.1h-2.2v4.2h2.2C88.1,192.2,89,191.5,89,190.2z"/>
	<path class="st2" d="M94.7,189.3v0.8c-0.1,0-0.1,0-0.2,0c-1.3,0-2.1,0.8-2.1,2.3v3.2h-0.9v-6.3h0.8v1.2
		C92.7,189.8,93.5,189.3,94.7,189.3z"/>
	<path class="st2" d="M101.6,192.8h-5.3c0.1,1.3,1.1,2.2,2.5,2.2c0.8,0,1.5-0.3,1.9-0.8l0.5,0.5c-0.6,0.7-1.4,1-2.4,1
		c-2,0-3.3-1.3-3.3-3.2s1.3-3.2,3.1-3.2c1.8,0,3.1,1.3,3.1,3.2C101.7,192.6,101.6,192.7,101.6,192.8z M96.4,192.1h4.5
		c-0.1-1.2-1-2.1-2.2-2.1C97.4,190,96.5,190.9,96.4,192.1z"/>
	<path class="st2" d="M109.2,189.4v5.5c0,2.2-1.1,3.1-3.1,3.1c-1.1,0-2.3-0.4-2.9-1l0.4-0.6c0.6,0.5,1.5,0.9,2.5,0.9
		c1.6,0,2.3-0.7,2.3-2.3v-0.8c-0.5,0.8-1.4,1.2-2.5,1.2c-1.8,0-3.2-1.3-3.2-3.1s1.4-3,3.2-3c1.1,0,2,0.4,2.5,1.3v-1.2L109.2,189.4
		L109.2,189.4z M108.4,192.4c0-1.4-1-2.3-2.4-2.3c-1.4,0-2.4,0.9-2.4,2.3s1,2.3,2.4,2.3C107.4,194.7,108.4,193.7,108.4,192.4z"/>
	<path class="st2" d="M114.8,189.3v0.8c-0.1,0-0.1,0-0.2,0c-1.3,0-2.1,0.8-2.1,2.3v3.2h-0.9v-6.3h0.8v1.2
		C112.8,189.8,113.6,189.3,114.8,189.3z"/>
	<path class="st2" d="M121.1,191.8v3.9h-0.8v-1c-0.4,0.6-1.1,1-2.2,1c-1.4,0-2.3-0.7-2.3-1.8c0-1,0.6-1.8,2.4-1.8h2v-0.4
		c0-1.1-0.6-1.7-1.8-1.7c-0.8,0-1.6,0.3-2.1,0.7l-0.4-0.6c0.6-0.5,1.6-0.9,2.6-0.9C120.2,189.3,121.1,190.1,121.1,191.8z
		 M120.2,193.8v-1h-2c-1.2,0-1.6,0.5-1.6,1.1c0,0.7,0.6,1.2,1.6,1.2C119.2,195.1,119.9,194.6,120.2,193.8z"/>
	<path class="st2" d="M129.2,186.8v8.9h-0.8v-1.2c-0.5,0.9-1.4,1.3-2.4,1.3c-1.8,0-3.1-1.3-3.1-3.2s1.3-3.2,3.1-3.2
		c1,0,1.9,0.4,2.4,1.2v-3.8L129.2,186.8L129.2,186.8z M128.4,192.5c0-1.5-1-2.5-2.3-2.5c-1.3,0-2.4,1-2.4,2.5s1,2.5,2.4,2.5
		C127.3,195,128.4,194,128.4,192.5z"/>
	<path class="st2" d="M130.9,192.5c0-1.9,1.4-3.2,3.2-3.2c1.9,0,3.2,1.3,3.2,3.2s-1.4,3.2-3.2,3.2
		C132.3,195.7,130.9,194.4,130.9,192.5z M136.5,192.5c0-1.5-1-2.5-2.3-2.5s-2.4,1-2.4,2.5s1,2.5,2.4,2.5S136.5,194,136.5,192.5z"/>
</g>
<g class="st4">
	<path class="st2" d="M23.6,209.3h0.9v8.4h-0.9V209.3z"/>
	<path class="st2" d="M32.9,214v3.7H32v-3.6c0-1.3-0.7-2-1.9-2c-1.4,0-2.2,0.8-2.2,2.3v3.3h-0.9v-6.3h0.8v1.2
		c0.5-0.8,1.3-1.2,2.4-1.2C31.8,211.3,32.9,212.2,32.9,214z"/>
	<path class="st2" d="M40.4,211.4l-2.8,6.3h-0.9l-2.8-6.3h0.9l2.4,5.4l2.4-5.4H40.4z"/>
	<path class="st2" d="M46.9,214.8h-5.3c0.1,1.3,1.1,2.2,2.5,2.2c0.8,0,1.5-0.3,1.9-0.8l0.5,0.5c-0.6,0.7-1.4,1-2.4,1
		c-2,0-3.3-1.3-3.3-3.2s1.3-3.2,3.1-3.2c1.8,0,3.1,1.3,3.1,3.2C46.9,214.6,46.9,214.7,46.9,214.8z M41.6,214.1h4.5
		c-0.1-1.2-1-2.1-2.2-2.1C42.6,212,41.7,212.9,41.6,214.1z"/>
	<path class="st2" d="M47.8,216.9l0.4-0.7c0.5,0.4,1.4,0.7,2.2,0.7c1.2,0,1.7-0.4,1.7-1c0-1.6-4.1-0.4-4.1-2.8c0-1,0.9-1.8,2.5-1.8
		c0.8,0,1.7,0.2,2.2,0.6l-0.4,0.7c-0.5-0.4-1.2-0.5-1.9-0.5c-1.1,0-1.6,0.4-1.6,1c0,1.7,4.1,0.4,4.1,2.8c0,1.1-1,1.8-2.6,1.8
		C49.3,217.7,48.3,217.4,47.8,216.9z"/>
	<path class="st2" d="M57.9,217.3c-0.3,0.3-0.8,0.4-1.3,0.4c-1.2,0-1.9-0.7-1.9-1.8v-3.8h-1.1v-0.7h1.1V210h0.9v1.4h1.9v0.7h-1.9
		v3.8c0,0.7,0.4,1.1,1.1,1.1c0.4,0,0.7-0.1,0.9-0.3L57.9,217.3z"/>
	<path class="st2" d="M59.2,209.4c0-0.3,0.3-0.6,0.6-0.6s0.6,0.3,0.6,0.6c0,0.4-0.3,0.6-0.6,0.6C59.5,210,59.2,209.7,59.2,209.4z
		 M59.4,211.4h0.9v6.3h-0.9V211.4z"/>
	<path class="st2" d="M68.5,211.4v5.5c0,2.2-1.1,3.1-3.1,3.1c-1.1,0-2.3-0.4-2.9-1l0.4-0.6c0.6,0.5,1.5,0.9,2.5,0.9
		c1.6,0,2.3-0.7,2.3-2.3v-0.8c-0.5,0.8-1.4,1.2-2.5,1.2c-1.8,0-3.2-1.3-3.2-3.1s1.4-3,3.2-3c1.1,0,2,0.4,2.5,1.3v-1.2L68.5,211.4
		L68.5,211.4z M67.6,214.4c0-1.4-1-2.3-2.4-2.3c-1.4,0-2.4,0.9-2.4,2.3s1,2.3,2.4,2.3C66.6,216.7,67.6,215.7,67.6,214.4z"/>
	<path class="st2" d="M75.6,213.8v3.9h-0.8v-1c-0.4,0.6-1.1,1-2.2,1c-1.4,0-2.3-0.7-2.3-1.8c0-1,0.6-1.8,2.4-1.8h2v-0.4
		c0-1.1-0.6-1.7-1.8-1.7c-0.8,0-1.6,0.3-2.1,0.7l-0.4-0.6c0.6-0.5,1.6-0.9,2.6-0.9C74.7,211.3,75.6,212.1,75.6,213.8z M74.8,215.8
		v-1h-2c-1.2,0-1.6,0.5-1.6,1.1c0,0.7,0.6,1.2,1.6,1.2C73.7,217.1,74.4,216.6,74.8,215.8z"/>
	<path class="st2" d="M77.3,214.5c0-1.9,1.4-3.2,3.2-3.2c1.1,0,2,0.4,2.5,1.2l-0.6,0.4c-0.4-0.6-1.1-0.9-1.8-0.9
		c-1.4,0-2.4,1-2.4,2.5c0,1.5,1,2.5,2.4,2.5c0.7,0,1.4-0.3,1.8-0.9l0.6,0.4c-0.5,0.8-1.4,1.2-2.5,1.2
		C78.7,217.7,77.3,216.4,77.3,214.5z"/>
	<path class="st2" d="M84.5,209.4c0-0.3,0.3-0.6,0.6-0.6s0.6,0.3,0.6,0.6c0,0.4-0.3,0.6-0.6,0.6C84.8,210,84.5,209.7,84.5,209.4z
		 M84.7,211.4h0.9v6.3h-0.9V211.4z"/>
	<path class="st2" d="M87.3,214.5c0-1.9,1.4-3.2,3.2-3.2c1.9,0,3.2,1.3,3.2,3.2s-1.4,3.2-3.2,3.2C88.7,217.7,87.3,216.4,87.3,214.5z
		 M92.9,214.5c0-1.5-1-2.5-2.3-2.5s-2.4,1-2.4,2.5s1,2.5,2.4,2.5S92.9,216,92.9,214.5z M91.4,208.9h1.1l-1.9,1.5h-0.8L91.4,208.9z"
		/>
	<path class="st2" d="M101.3,214v3.7h-0.9v-3.6c0-1.3-0.7-2-1.9-2c-1.4,0-2.2,0.8-2.2,2.3v3.3h-0.9v-6.3h0.8v1.2
		c0.5-0.8,1.3-1.2,2.4-1.2C100.2,211.3,101.3,212.2,101.3,214z"/>
</g>
<g class="st4">
	<path class="st2" d="M30.2,234.2c0,1.8-1.3,2.9-3.4,2.9h-2.2v2.6h-0.9v-8.4h3.1C28.9,231.3,30.2,232.4,30.2,234.2z M29.3,234.2
		c0-1.3-0.9-2.1-2.6-2.1h-2.2v4.2h2.2C28.4,236.2,29.3,235.5,29.3,234.2z"/>
	<path class="st2" d="M31.3,236.5c0-1.9,1.4-3.2,3.2-3.2c1.9,0,3.2,1.3,3.2,3.2s-1.4,3.2-3.2,3.2C32.7,239.7,31.3,238.4,31.3,236.5z
		 M36.8,236.5c0-1.5-1-2.5-2.3-2.5s-2.4,1-2.4,2.5s1,2.5,2.4,2.5S36.8,238,36.8,236.5z"/>
	<path class="st2" d="M38.6,238.9l0.4-0.7c0.5,0.4,1.4,0.7,2.2,0.7c1.2,0,1.7-0.4,1.7-1c0-1.6-4.1-0.4-4.1-2.8c0-1,0.9-1.8,2.5-1.8
		c0.8,0,1.7,0.2,2.2,0.6l-0.4,0.7c-0.5-0.4-1.2-0.5-1.9-0.5c-1.1,0-1.6,0.4-1.6,1c0,1.7,4.1,0.4,4.1,2.8c0,1.1-1,1.8-2.6,1.8
		C40.1,239.7,39.1,239.4,38.6,238.9z"/>
	<path class="st2" d="M48.6,239.3c-0.3,0.3-0.8,0.4-1.3,0.4c-1.2,0-1.9-0.7-1.9-1.8v-3.8h-1.1v-0.7h1.1V232h0.9v1.4h1.9v0.7h-1.9
		v3.8c0,0.7,0.4,1.1,1.1,1.1c0.4,0,0.7-0.1,0.9-0.3L48.6,239.3z"/>
	<path class="st2" d="M55.8,233.4v5.5c0,2.2-1.1,3.1-3.1,3.1c-1.1,0-2.3-0.4-2.9-1l0.4-0.6c0.6,0.5,1.5,0.9,2.5,0.9
		c1.6,0,2.3-0.7,2.3-2.3v-0.8c-0.5,0.8-1.4,1.2-2.5,1.2c-1.8,0-3.2-1.3-3.2-3.1s1.4-3,3.2-3c1.1,0,2,0.4,2.5,1.3v-1.2L55.8,233.4
		L55.8,233.4z M55,236.4c0-1.4-1-2.3-2.4-2.3c-1.4,0-2.4,0.9-2.4,2.3s1,2.3,2.4,2.3C54,238.7,55,237.7,55,236.4z"/>
	<path class="st2" d="M61.4,233.3v0.8c-0.1,0-0.1,0-0.2,0c-1.3,0-2.1,0.8-2.1,2.3v3.2h-0.9v-6.3H59v1.2
		C59.4,233.8,60.2,233.3,61.4,233.3z"/>
	<path class="st2" d="M67.7,235.8v3.9h-0.8v-1c-0.4,0.6-1.1,1-2.2,1c-1.4,0-2.3-0.7-2.3-1.8c0-1,0.6-1.8,2.4-1.8h2v-0.4
		c0-1.1-0.6-1.7-1.8-1.7c-0.8,0-1.6,0.3-2.1,0.7l-0.4-0.6c0.6-0.5,1.6-0.9,2.6-0.9C66.7,233.3,67.7,234.1,67.7,235.8z M66.8,237.8
		v-1h-2c-1.2,0-1.6,0.5-1.6,1.1c0,0.7,0.6,1.2,1.6,1.2C65.8,239.1,66.5,238.6,66.8,237.8z"/>
	<path class="st2" d="M75.8,230.8v8.9h-0.8v-1.2c-0.5,0.9-1.4,1.3-2.4,1.3c-1.8,0-3.1-1.3-3.1-3.2s1.3-3.2,3.1-3.2
		c1,0,1.9,0.4,2.4,1.2v-3.8L75.8,230.8L75.8,230.8z M74.9,236.5c0-1.5-1-2.5-2.3-2.5c-1.3,0-2.4,1-2.4,2.5s1,2.5,2.4,2.5
		C73.9,239,74.9,238,74.9,236.5z"/>
	<path class="st2" d="M77.5,236.5c0-1.9,1.4-3.2,3.2-3.2c1.9,0,3.2,1.3,3.2,3.2s-1.4,3.2-3.2,3.2C78.9,239.7,77.5,238.4,77.5,236.5z
		 M83.1,236.5c0-1.5-1-2.5-2.3-2.5s-2.4,1-2.4,2.5s1,2.5,2.4,2.5S83.1,238,83.1,236.5z"/>
</g>
<g class="st4">
	<path class="st2" d="M30.6,253.3l-3.7,8.4H26l-3.7-8.4h1l3.2,7.3l3.2-7.3H30.6z"/>
	<path class="st2" d="M31.4,253.4c0-0.3,0.3-0.6,0.6-0.6c0.3,0,0.6,0.3,0.6,0.6c0,0.4-0.3,0.6-0.6,0.6
		C31.7,254,31.4,253.7,31.4,253.4z M31.6,255.4h0.9v6.3h-0.9V255.4z"/>
	<path class="st2" d="M40.7,258v3.7h-0.9v-3.6c0-1.3-0.7-2-1.9-2c-1.4,0-2.2,0.8-2.2,2.3v3.3h-0.9v-6.3h0.8v1.2
		c0.5-0.8,1.3-1.2,2.4-1.2C39.6,255.3,40.7,256.2,40.7,258z"/>
	<path class="st2" d="M42.4,258.5c0-1.9,1.4-3.2,3.2-3.2c1.1,0,2,0.4,2.5,1.2l-0.6,0.4c-0.4-0.6-1.1-0.9-1.8-0.9
		c-1.4,0-2.4,1-2.4,2.5c0,1.5,1,2.5,2.4,2.5c0.7,0,1.4-0.3,1.8-0.9l0.6,0.4c-0.5,0.8-1.4,1.2-2.5,1.2
		C43.7,261.7,42.4,260.4,42.4,258.5z"/>
	<path class="st2" d="M55.4,255.4v6.3h-0.8v-1.1c-0.4,0.8-1.3,1.2-2.3,1.2c-1.6,0-2.7-0.9-2.7-2.7v-3.7h0.9v3.6c0,1.3,0.7,2,1.9,2
		c1.3,0,2.1-0.9,2.1-2.3v-3.3H55.4z"/>
	<path class="st2" d="M57.8,252.8h0.9v8.9h-0.9V252.8z"/>
	<path class="st2" d="M65.8,257.8v3.9H65v-1c-0.4,0.6-1.1,1-2.2,1c-1.4,0-2.3-0.7-2.3-1.8c0-1,0.6-1.8,2.4-1.8h2v-0.4
		c0-1.1-0.6-1.7-1.8-1.7c-0.8,0-1.6,0.3-2.1,0.7l-0.4-0.6c0.6-0.5,1.6-0.9,2.6-0.9C64.9,255.3,65.8,256.1,65.8,257.8z M65,259.8v-1
		h-2c-1.2,0-1.6,0.5-1.6,1.1c0,0.7,0.6,1.2,1.6,1.2C63.9,261.1,64.6,260.6,65,259.8z"/>
	<path class="st2" d="M67.5,258.5c0-1.9,1.4-3.2,3.2-3.2c1.1,0,2,0.4,2.5,1.2l-0.6,0.4c-0.4-0.6-1.1-0.9-1.8-0.9
		c-1.4,0-2.4,1-2.4,2.5c0,1.5,1,2.5,2.4,2.5c0.7,0,1.4-0.3,1.8-0.9l0.6,0.4c-0.5,0.8-1.4,1.2-2.5,1.2
		C68.9,261.7,67.5,260.4,67.5,258.5z"/>
	<path class="st2" d="M74.7,253.4c0-0.3,0.3-0.6,0.6-0.6s0.6,0.3,0.6,0.6c0,0.4-0.3,0.6-0.6,0.6C75,254,74.7,253.7,74.7,253.4z
		 M74.9,255.4h0.9v6.3h-0.9V255.4z"/>
	<path class="st2" d="M77.5,258.5c0-1.9,1.4-3.2,3.2-3.2c1.9,0,3.2,1.3,3.2,3.2s-1.4,3.2-3.2,3.2C78.9,261.7,77.5,260.4,77.5,258.5z
		 M83.1,258.5c0-1.5-1-2.5-2.3-2.5s-2.4,1-2.4,2.5s1,2.5,2.4,2.5S83.1,260,83.1,258.5z M81.6,252.9h1.1l-1.9,1.5h-0.8L81.6,252.9z"
		/>
	<path class="st2" d="M91.5,258v3.7h-0.9v-3.6c0-1.3-0.7-2-1.9-2c-1.4,0-2.2,0.8-2.2,2.3v3.3h-0.9v-6.3h0.8v1.2
		c0.5-0.8,1.3-1.2,2.4-1.2C90.4,255.3,91.5,256.2,91.5,258z"/>
	<path class="st2" d="M96.3,258.5c0-1.9,1.4-3.2,3.2-3.2c1.1,0,2,0.4,2.5,1.2l-0.6,0.4c-0.4-0.6-1.1-0.9-1.8-0.9
		c-1.4,0-2.4,1-2.4,2.5c0,1.5,1,2.5,2.4,2.5c0.7,0,1.4-0.3,1.8-0.9l0.6,0.4c-0.5,0.8-1.4,1.2-2.5,1.2
		C97.7,261.7,96.3,260.4,96.3,258.5z"/>
	<path class="st2" d="M103,258.5c0-1.9,1.4-3.2,3.2-3.2c1.9,0,3.2,1.3,3.2,3.2s-1.4,3.2-3.2,3.2C104.3,261.7,103,260.4,103,258.5z
		 M108.5,258.5c0-1.5-1-2.5-2.3-2.5s-2.4,1-2.4,2.5s1,2.5,2.4,2.5S108.5,260,108.5,258.5z"/>
	<path class="st2" d="M116.9,258v3.7h-0.9v-3.6c0-1.3-0.7-2-1.9-2c-1.4,0-2.2,0.8-2.2,2.3v3.3h-0.9v-6.3h0.8v1.2
		c0.5-0.8,1.3-1.2,2.4-1.2C115.9,255.3,116.9,256.2,116.9,258z"/>
	<path class="st2" d="M127.9,258.8h-5.3c0.1,1.3,1.1,2.2,2.5,2.2c0.8,0,1.5-0.3,1.9-0.8l0.5,0.5c-0.6,0.7-1.4,1-2.4,1
		c-2,0-3.3-1.3-3.3-3.2s1.3-3.2,3.1-3.2s3.1,1.3,3.1,3.2C127.9,258.6,127.9,258.7,127.9,258.8z M122.6,258.1h4.5
		c-0.1-1.2-1-2.1-2.2-2.1C123.6,256,122.7,256.9,122.6,258.1z"/>
	<path class="st2" d="M129.6,252.8h0.9v8.9h-0.9V252.8z"/>
	<path class="st2" d="M144.9,253.3v8.4h-0.9V255l-3.3,5.6h-0.4L137,255v6.7h-0.9v-8.4h0.7l3.6,6.2l3.6-6.2H144.9z"/>
	<path class="st2" d="M153,258.8h-5.3c0.1,1.3,1.1,2.2,2.5,2.2c0.8,0,1.5-0.3,1.9-0.8l0.5,0.5c-0.6,0.7-1.4,1-2.4,1
		c-2,0-3.3-1.3-3.3-3.2s1.3-3.2,3.1-3.2c1.8,0,3.1,1.3,3.1,3.2C153,258.6,153,258.7,153,258.8z M147.7,258.1h4.5
		c-0.1-1.2-1-2.1-2.2-2.1C148.7,256,147.8,256.9,147.7,258.1z"/>
	<path class="st2" d="M160.5,252.8v8.9h-0.8v-1.2c-0.5,0.9-1.4,1.3-2.4,1.3c-1.8,0-3.1-1.3-3.1-3.2s1.3-3.2,3.1-3.2
		c1,0,1.9,0.4,2.4,1.2v-3.8L160.5,252.8L160.5,252.8z M159.6,258.5c0-1.5-1-2.5-2.3-2.5c-1.3,0-2.4,1-2.4,2.5s1,2.5,2.4,2.5
		S159.6,260,159.6,258.5z"/>
	<path class="st2" d="M162.7,253.4c0-0.3,0.3-0.6,0.6-0.6s0.6,0.3,0.6,0.6c0,0.4-0.3,0.6-0.6,0.6C162.9,254,162.7,253.7,162.7,253.4
		z M162.8,255.4h0.9v6.3h-0.9V255.4z"/>
	<path class="st2" d="M165.4,258.5c0-1.9,1.4-3.2,3.2-3.2s3.2,1.3,3.2,3.2s-1.4,3.2-3.2,3.2S165.4,260.4,165.4,258.5z M171,258.5
		c0-1.5-1-2.5-2.3-2.5s-2.4,1-2.4,2.5s1,2.5,2.4,2.5S171,260,171,258.5z"/>
</g>
</svg>
